<svg height="100" viewbox="0 0 100 100" width="100" xmlns="http://www.w3.org/2000/svg">
<!-- Petals: 4 overlapping red arcs -->
<path d="M50,50 
                   C30,40  35,20  50,30 
                   C65,20  70,40  50,50 Z" fill="#D00000" stroke="black" stroke-width="3"></path>
<path d="M50,50 
                   C60,30  80,35  70,50 
                   C80,65  60,70  50,50 Z" fill="#D00000" stroke="black" stroke-width="3"></path>
<path d="M50,50 
                   C70,60  65,80  50,70 
                   C35,80  30,60  50,50 Z" fill="#D00000" stroke="black" stroke-width="3"></path>
<path d="M50,50 
                   C40,70  20,65  30,50 
                   C20,35  40,30  50,50 Z" fill="#D00000" stroke="black" stroke-width="3"></path>
<!-- Dark center -->
<circle cx="50" cy="50" fill="#2D2D2D" r="6" stroke="black" stroke-width="2"></circle>
</svg>