<svg width="193" height="205" viewBox="0 0 193 205" fill="none" xmlns="http://www.w3.org/2000/svg">
<path d="M134.112 88.9251C110.446 60.5751 75.0229 66.4419 27.0593 87.7282C30.4338 101.194 28.2253 101.257 24.6677 112.661C21.11 124.066 28.6412 144.613 44.0198 155.826C81.7222 183.317 145.671 158.103 148.202 154.138C151.394 141.85 153.045 111.605 134.112 88.9251Z" fill="#B7B3B3" fill-opacity="0.5" stroke="black" stroke-width="4" stroke-linecap="round"/>
<path d="M129.251 4.16752C85.4998 -4.79608 54.7675 20.8142 22.7547 66.2725C35.7733 75.1649 33.6391 76.5166 38.3343 87.8278C43.0295 99.139 65.2444 111.304 88.4874 111.304C145.471 111.304 190.431 53.2539 190.075 48.5587C184.384 36.7495 164.251 11.3384 129.251 4.16752Z" fill="#B7B3B3" fill-opacity="0.5" stroke="black" stroke-width="4" stroke-linecap="round"/>
</svg>
