<svg width="192" height="205" viewBox="0 0 192 205" fill="none" xmlns="http://www.w3.org/2000/svg">
<path d="M57.9653 88.6446C81.6316 60.2945 117.054 66.1613 165.018 87.4476C161.643 100.914 163.852 100.976 167.409 112.381C170.967 123.786 163.436 144.332 148.057 155.546C110.355 183.037 46.4061 157.823 43.8752 153.857C40.6831 141.57 39.0322 111.325 57.9653 88.6446Z" fill="#B7B3B3" fill-opacity="0.5" stroke="black" stroke-width="4" stroke-linecap="round"/>
<path d="M62.8265 3.887C106.577 -5.0766 137.31 20.5337 169.322 65.992C156.304 74.8844 158.438 76.2361 153.743 87.5473C149.048 98.8585 126.833 111.023 103.59 111.023C46.6066 111.023 1.64636 52.9734 2.00206 48.2782C7.69323 36.469 27.8257 11.0579 62.8265 3.887Z" fill="#B7B3B3" fill-opacity="0.5" stroke="black" stroke-width="4" stroke-linecap="round"/>
</svg>
