<svg width="193" height="305" viewBox="0 0 193 305" fill="none" xmlns="http://www.w3.org/2000/svg">
<path d="M98.3818 302.439C97.955 296.392 95.7354 283.103 91.9792 278.323C94.398 276.117 100.431 273.03 105.211 278.323C101.455 283.103 98.8087 296.392 98.3818 302.439Z" fill="black" stroke="black" stroke-width="4" stroke-linecap="round" stroke-linejoin="round"/>
<circle cx="97.955" cy="82.4039" r="44.818" fill="black"/>
<path d="M129.328 138.533C154.084 142.119 172.509 180.577 178.627 199.358" stroke="#434343" stroke-width="13" stroke-linecap="round"/>
<path d="M62.7409 118.472C45.0271 107.161 34.783 82.8308 34.783 63.1963" stroke="#434343" stroke-width="13" stroke-linecap="round"/>
<path d="M135.522 115.529C157.905 107.714 170.845 94.8897 185.884 76.855M131.675 127.152C150.561 128.554 161.752 122.543 185.884 129.356" stroke="#434343" stroke-width="13" stroke-linecap="round"/>
<path d="M62.5274 128.716C48.3564 133.155 28.5938 121.46 20.4839 115.057M66.1556 137.68C35.594 145.021 14.0102 182.853 7.03851 200.852" stroke="#434343" stroke-width="13" stroke-linecap="round"/>
<ellipse cx="98.1685" cy="119.752" rx="36.4946" ry="33.9336" fill="#303030"/>
<ellipse cx="97.955" cy="207.681" rx="56.7694" ry="70.6417" fill="#FFD900"/>
<path d="M54.3145 246.887C78.7473 262.743 123.065 260.294 142.14 246.887M43.7466 214.937C60.2387 233.791 137.828 233.163 151.737 214.937M47.5881 184.632C54.7413 204.533 145.982 202.438 148.962 184.632M60.0768 163.93C72.7936 176.918 130.402 174.195 139.145 163.93M86.217 39.7202C87.2841 22.0064 78.8503 20.9393 66.5824 6M116.309 39.7202C119.937 26.7016 115.242 18.1649 132.102 6" stroke="black" stroke-width="11" stroke-linecap="round"/>
</svg>
