<svg fill="none" height="100" viewbox="0 0 100 100" width="100" xmlns="http://www.w3.org/2000/svg">
<!-- Center -->
<circle cx="50" cy="50" fill="#FFD54F" r="8" stroke="black" stroke-width="2"></circle>
<!-- Outer ring of petals (10) -->
<ellipse cx="50" cy="25" fill="#FFAB40" rx="6" ry="14" stroke="black" stroke-width="3" transform="rotate(0,50,50)"></ellipse>
<ellipse cx="50" cy="25" fill="#FFAB40" rx="6" ry="14" stroke="black" stroke-width="3" transform="rotate(36,50,50)"></ellipse>
<ellipse cx="50" cy="25" fill="#FFAB40" rx="6" ry="14" stroke="black" stroke-width="3" transform="rotate(72,50,50)"></ellipse>
<ellipse cx="50" cy="25" fill="#FFAB40" rx="6" ry="14" stroke="black" stroke-width="3" transform="rotate(108,50,50)"></ellipse>
<ellipse cx="50" cy="25" fill="#FFAB40" rx="6" ry="14" stroke="black" stroke-width="3" transform="rotate(144,50,50)"></ellipse>
<ellipse cx="50" cy="25" fill="#FFAB40" rx="6" ry="14" stroke="black" stroke-width="3" transform="rotate(180,50,50)"></ellipse>
<ellipse cx="50" cy="25" fill="#FFAB40" rx="6" ry="14" stroke="black" stroke-width="3" transform="rotate(216,50,50)"></ellipse>
<ellipse cx="50" cy="25" fill="#FFAB40" rx="6" ry="14" stroke="black" stroke-width="3" transform="rotate(252,50,50)"></ellipse>
<ellipse cx="50" cy="25" fill="#FFAB40" rx="6" ry="14" stroke="black" stroke-width="3" transform="rotate(288,50,50)"></ellipse>
<ellipse cx="50" cy="25" fill="#FFAB40" rx="6" ry="14" stroke="black" stroke-width="3" transform="rotate(324,50,50)"></ellipse>
</svg>