<?xml version='1.0' encoding='utf-8'?>
<svg xmlns="http://www.w3.org/2000/svg" fill="none" height="100" viewbox="0 0 100 100" width="100">
    
    <circle cx="50" cy="50" fill="#FFD700" r="8" stroke="black" stroke-width="2" />
    
    <path fill="#FDD835" stroke="black" stroke-width="3" d="M 54.0,30.0 L 53.95075336238055,28.435655349597692 L 53.804226065180615,26.909830056250527 L 53.56402609675347,25.460095002604533 L 53.236067977499786,24.122147477075266 L 52.82842712474619,22.928932188134524 L 52.35114100916989,21.909830056250527 L 51.81596199895819,21.08993475811632 L 51.236067977499786,20.489434837048464 L 50.625737860160925,20.12311659404862 L 50.0,20.0 L 49.374262139839075,20.123116594048625 L 48.763932022500214,20.489434837048464 L 48.18403800104181,21.08993475811632 L 47.64885899083011,21.909830056250527 L 47.17157287525381,22.928932188134524 L 46.763932022500214,24.122147477075266 L 46.43597390324653,25.460095002604533 L 46.195773934819385,26.909830056250524 L 46.04924663761945,28.435655349597692 L 46.0,30.0 L 46.0,30.0 L 46.04924663761945,31.564344650402308 L 46.195773934819385,33.09016994374947 L 46.43597390324653,34.53990499739547 L 46.763932022500214,35.877852522924734 L 47.17157287525381,37.071067811865476 L 47.64885899083011,38.09016994374947 L 48.18403800104181,38.91006524188368 L 48.763932022500214,39.510565162951536 L 49.374262139839075,39.876883405951375 L 50.0,40.0 L 50.625737860160925,39.876883405951375 L 51.236067977499786,39.510565162951536 L 51.81596199895819,38.91006524188368 L 52.35114100916989,38.09016994374947 L 52.82842712474619,37.071067811865476 L 53.236067977499786,35.877852522924734 L 53.56402609675347,34.53990499739547 L 53.804226065180615,33.09016994374947 L 53.95075336238055,31.564344650402308 L 54.0,30.0" /><path fill="#FDD835" stroke="black" stroke-width="3" d="M 63.46410161513775,34.67949192431122 L 64.2036251011095,33.30010639797881 L 64.83964138606005,31.905439283603357 L 65.35648963823694,30.52983191417556 L 65.7414433383505,29.207156308509838 L 65.98502364871591,27.96998112972637 L 66.08123281369524,26.8487697366758 L 66.0277018443468,25.871130074942307 L 65.82574885079502,25.061134877597794 L 65.48034658598476,24.438728914620818 L 65.0,24.019237886466833 L 64.3965368199666,23.8129910544599 L 63.6848163121565,23.825066900098008 L 62.88236339753688,24.05516807598412 L 62.00893713005422,24.497628727505905 L 61.08604416314955,25.14155400498018 L 60.13640918457422,25.97108833101005 L 59.18341535915853,26.96580581742208 L 58.25052855768941,28.101213218422735 L 57.3607195492928,29.349353035598256 L 56.535898384862236,30.679491924311222 L 56.535898384862236,30.679491924311222 L 55.79637489889049,32.05887745064363 L 55.160358613939934,33.45354456501909 L 54.64351036176306,34.829151934446884 L 54.25855666164949,36.1518275401126 L 54.014976351284076,37.38900271889607 L 53.91876718630475,38.51021411194664 L 53.97229815565319,39.48785377368013 L 54.17425114920496,40.29784897102465 L 54.51965341401523,40.92025493400162 L 55.0,41.339745962155604 L 55.60346318003339,41.545992794162544 L 56.31518368784349,41.533916948524435 L 57.11763660246312,41.303815772638316 L 57.99106286994577,40.86135512111653 L 58.91395583685044,40.217429843642265 L 59.86359081542578,39.387895517612385 L 60.81658464084147,38.39317803120036 L 61.749471442310586,37.2577706301997 L 62.63928045070719,36.00963081302418 L 63.46410161513775,34.67949192431122" /><path fill="#FDD835" stroke="black" stroke-width="3" d="M 69.32050807568878,43.46410161513775 L 70.65064696440173,42.63928045070718 L 71.89878678157726,41.74947144231059 L 73.0341941825779,40.81658464084147 L 74.02891166898993,39.86359081542577 L 74.85844599501982,38.913955836850434 L 75.50237127249409,37.991062869945765 L 75.94483192401587,37.117636602463115 L 76.17493309990198,36.31518368784349 L 76.1870089455401,35.60346318003338 L 75.98076211353316,34.99999999999999 L 75.56127108537918,34.51965341401523 L 74.9388651224022,34.174251149204956 L 74.12886992505769,33.9722981556532 L 73.15123026332418,33.91876718630475 L 72.03001887027362,34.014976351284076 L 70.79284369149015,34.258556661649486 L 69.47016808582444,34.64351036176306 L 68.09456071639664,35.16035861393993 L 66.69989360202118,35.79637489889049 L 65.32050807568876,36.535898384862236 L 65.32050807568876,36.535898384862236 L 63.99036918697581,37.3607195492928 L 62.742229369800285,38.25052855768941 L 61.606821968799636,39.18341535915853 L 60.61210448238761,40.13640918457422 L 59.78257015635773,41.08604416314955 L 59.138644878883454,42.00893713005422 L 58.69618422736168,42.88236339753688 L 58.46608305147556,43.6848163121565 L 58.45400720583745,44.39653681996661 L 58.66025403784439,45.0 L 59.079745065998374,45.48034658598476 L 59.702151028975344,45.82574885079504 L 60.512146226319864,46.027701844346794 L 61.489785888053355,46.08123281369524 L 62.61099728110392,45.98502364871591 L 63.848172459887394,45.74144333835051 L 65.17084806555312,45.35648963823694 L 66.54645543498091,44.839641386060066 L 67.94112254935636,44.203625101109495 L 69.32050807568878,43.46410161513775" /><path fill="#FDD835" stroke="black" stroke-width="3" d="M 70.0,54.0 L 71.56434465040232,53.95075336238055 L 73.09016994374947,53.804226065180615 L 74.53990499739547,53.56402609675347 L 75.87785252292474,53.236067977499786 L 77.07106781186548,52.82842712474619 L 78.09016994374947,52.35114100916989 L 78.91006524188369,51.81596199895819 L 79.51056516295154,51.236067977499786 L 79.87688340595139,50.625737860160925 L 80.0,50.0 L 79.87688340595138,49.374262139839075 L 79.51056516295154,48.763932022500214 L 78.91006524188369,48.18403800104181 L 78.09016994374947,47.64885899083011 L 77.07106781186548,47.17157287525381 L 75.87785252292474,46.763932022500214 L 74.53990499739547,46.43597390324653 L 73.09016994374949,46.195773934819385 L 71.56434465040232,46.04924663761945 L 70.0,46.0 L 70.0,46.0 L 68.4356553495977,46.04924663761945 L 66.90983005625053,46.195773934819385 L 65.46009500260453,46.43597390324653 L 64.12214747707526,46.763932022500214 L 62.928932188134524,47.17157287525381 L 61.90983005625053,47.64885899083011 L 61.08993475811632,48.18403800104181 L 60.489434837048464,48.763932022500214 L 60.123116594048625,49.374262139839075 L 60.0,50.0 L 60.123116594048625,50.625737860160925 L 60.489434837048464,51.236067977499786 L 61.08993475811632,51.81596199895819 L 61.90983005625053,52.35114100916989 L 62.928932188134524,52.82842712474619 L 64.12214747707526,53.236067977499786 L 65.46009500260453,53.56402609675347 L 66.90983005625053,53.804226065180615 L 68.4356553495977,53.95075336238055 L 70.0,54.0" /><path fill="#FDD835" stroke="black" stroke-width="3" d="M 65.32050807568878,63.46410161513775 L 66.69989360202118,64.2036251011095 L 68.09456071639664,64.83964138606005 L 69.47016808582444,65.35648963823694 L 70.79284369149016,65.7414433383505 L 72.03001887027362,65.98502364871591 L 73.1512302633242,66.08123281369524 L 74.12886992505769,66.0277018443468 L 74.9388651224022,65.82574885079502 L 75.56127108537918,65.48034658598476 L 75.98076211353316,64.99999999999999 L 76.1870089455401,64.3965368199666 L 76.17493309990199,63.6848163121565 L 75.94483192401587,62.882363397536864 L 75.50237127249409,62.00893713005422 L 74.85844599501982,61.08604416314955 L 74.02891166898993,60.13640918457422 L 73.0341941825779,59.18341535915853 L 71.89878678157726,58.25052855768941 L 70.65064696440174,57.360719549292796 L 69.32050807568878,56.535898384862236 L 69.32050807568878,56.535898384862236 L 67.94112254935636,55.79637489889049 L 66.54645543498091,55.160358613939934 L 65.17084806555312,54.64351036176306 L 63.848172459887394,54.258556661649486 L 62.61099728110392,54.014976351284076 L 61.48978588805335,53.91876718630475 L 60.51214622631986,53.97229815565319 L 59.70215102897535,54.17425114920496 L 59.07974506599838,54.519653414015224 L 58.66025403784438,55.0 L 58.454007205837456,55.60346318003339 L 58.466083051475565,56.315183687843486 L 58.69618422736167,57.117636602463115 L 59.138644878883454,57.991062869945765 L 59.78257015635773,58.913955836850434 L 60.61210448238761,59.86359081542577 L 61.606821968799636,60.81658464084147 L 62.74222936980029,61.74947144231058 L 63.99036918697581,62.63928045070719 L 65.32050807568878,63.46410161513775" /><path fill="#FDD835" stroke="black" stroke-width="3" d="M 56.53589838486225,69.32050807568878 L 57.36071954929281,70.65064696440174 L 58.250528557689414,71.89878678157726 L 59.18341535915853,73.0341941825779 L 60.13640918457423,74.02891166898993 L 61.08604416314956,74.85844599501982 L 62.00893713005423,75.50237127249409 L 62.882363397536885,75.94483192401587 L 63.68481631215651,76.17493309990199 L 64.39653681996661,76.1870089455401 L 65.0,75.98076211353316 L 65.48034658598476,75.56127108537918 L 65.82574885079504,74.9388651224022 L 66.02770184434681,74.12886992505769 L 66.08123281369525,73.1512302633242 L 65.98502364871592,72.03001887027362 L 65.7414433383505,70.79284369149016 L 65.35648963823694,69.47016808582444 L 64.83964138606007,68.09456071639664 L 64.20362510110951,66.69989360202118 L 63.46410161513776,65.32050807568878 L 63.46410161513776,65.32050807568878 L 62.6392804507072,63.99036918697581 L 61.74947144231059,62.74222936980029 L 60.81658464084147,61.606821968799636 L 59.86359081542578,60.61210448238761 L 58.91395583685045,59.78257015635773 L 57.99106286994578,59.138644878883454 L 57.11763660246313,58.69618422736167 L 56.3151836878435,58.466083051475565 L 55.6034631800334,58.454007205837456 L 55.0,58.66025403784438 L 54.51965341401524,59.07974506599838 L 54.17425114920498,59.70215102897535 L 53.972298155653206,60.51214622631986 L 53.91876718630476,61.48978588805335 L 54.01497635128409,62.61099728110392 L 54.25855666164949,63.848172459887394 L 54.64351036176306,65.17084806555312 L 55.16035861393995,66.54645543498091 L 55.796374898890505,67.94112254935636 L 56.53589838486225,69.32050807568878" /><path fill="#FDD835" stroke="black" stroke-width="3" d="M 45.99999999999999,70.0 L 46.04924663761945,71.56434465040232 L 46.195773934819385,73.09016994374949 L 46.43597390324653,74.53990499739547 L 46.763932022500214,75.87785252292474 L 47.17157287525381,77.07106781186548 L 47.64885899083011,78.09016994374949 L 48.18403800104181,78.91006524188369 L 48.763932022500214,79.51056516295154 L 49.374262139839075,79.87688340595139 L 50.0,80.0 L 50.625737860160925,79.87688340595139 L 51.236067977499786,79.51056516295154 L 51.81596199895819,78.91006524188369 L 52.35114100916989,78.09016994374949 L 52.82842712474619,77.07106781186548 L 53.236067977499786,75.87785252292474 L 53.56402609675347,74.53990499739547 L 53.804226065180615,73.09016994374949 L 53.95075336238055,71.56434465040232 L 53.99999999999999,70.0 L 53.99999999999999,70.0 L 53.950753362380546,68.4356553495977 L 53.80422606518061,66.90983005625054 L 53.564026096753466,65.46009500260453 L 53.23606797749978,64.12214747707527 L 52.828427124746185,62.92893218813453 L 52.351141009169886,61.909830056250534 L 51.81596199895818,61.08993475811633 L 51.23606797749978,60.48943483704847 L 50.62573786016092,60.12311659404863 L 49.99999999999999,60.00000000000001 L 49.37426213983907,60.12311659404863 L 48.76393202250021,60.48943483704847 L 48.184038001041806,61.08993475811633 L 47.6488589908301,61.909830056250534 L 47.1715728752538,62.92893218813453 L 46.76393202250021,64.12214747707527 L 46.43597390324652,65.46009500260453 L 46.19577393481938,66.90983005625054 L 46.04924663761944,68.4356553495977 L 45.99999999999999,70.0" /><path fill="#FDD835" stroke="black" stroke-width="3" d="M 36.53589838486225,65.32050807568878 L 35.7963748988905,66.69989360202118 L 35.160358613939934,68.09456071639664 L 34.64351036176306,69.47016808582444 L 34.258556661649486,70.79284369149016 L 34.014976351284076,72.03001887027362 L 33.91876718630475,73.1512302633242 L 33.9722981556532,74.12886992505769 L 34.174251149204956,74.9388651224022 L 34.51965341401523,75.56127108537918 L 34.99999999999999,75.98076211353316 L 35.60346318003338,76.1870089455401 L 36.31518368784349,76.17493309990198 L 37.117636602463115,75.94483192401587 L 37.991062869945765,75.50237127249409 L 38.913955836850434,74.85844599501982 L 39.86359081542577,74.02891166898995 L 40.81658464084147,73.03419418257792 L 41.749471442310586,71.89878678157726 L 42.63928045070719,70.65064696440174 L 43.46410161513775,69.32050807568878 L 43.46410161513775,69.32050807568878 L 44.2036251011095,67.94112254935636 L 44.839641386060066,66.54645543498091 L 45.35648963823694,65.17084806555312 L 45.74144333835051,63.848172459887394 L 45.98502364871591,62.61099728110393 L 46.08123281369524,61.48978588805336 L 46.027701844346794,60.512146226319864 L 45.82574885079504,59.702151028975344 L 45.48034658598476,59.079745065998374 L 45.0,58.66025403784439 L 44.39653681996661,58.45400720583745 L 43.6848163121565,58.46608305147556 L 42.88236339753688,58.69618422736168 L 42.00893713005422,59.13864487888346 L 41.08604416314955,59.782570156357735 L 40.13640918457422,60.61210448238761 L 39.18341535915853,61.606821968799636 L 38.25052855768941,62.74222936980029 L 37.36071954929281,63.99036918697581 L 36.53589838486225,65.32050807568878" /><path fill="#FDD835" stroke="black" stroke-width="3" d="M 30.679491924311233,56.53589838486225 L 29.34935303559827,57.36071954929281 L 28.10121321842275,58.250528557689414 L 26.965805817422094,59.183415359158545 L 25.971088331010066,60.136409184574234 L 25.14155400498019,61.086044163149566 L 24.49762872750592,62.00893713005424 L 24.055168075984138,62.882363397536885 L 23.825066900098022,63.684816312156514 L 23.81299105445991,64.39653681996663 L 24.01923788646685,65.00000000000001 L 24.43872891462084,65.48034658598478 L 25.06113487759781,65.82574885079504 L 25.871130074942325,66.02770184434681 L 26.848769736675816,66.08123281369527 L 27.969981129726385,65.98502364871592 L 29.207156308509855,65.74144333835052 L 30.52983191417557,65.35648963823695 L 31.905439283603368,64.83964138606007 L 33.30010639797882,64.20362510110951 L 34.679491924311236,63.46410161513776 L 34.679491924311236,63.46410161513776 L 36.009630813024195,62.6392804507072 L 37.257770630199715,61.74947144231059 L 38.39317803120037,60.81658464084148 L 39.3878955176124,59.86359081542578 L 40.21742984364228,58.91395583685045 L 40.861355121116546,57.99106286994578 L 41.30381577263833,57.11763660246312 L 41.53391694852444,56.3151836878435 L 41.54599279416256,55.60346318003339 L 41.33974596215562,55.0 L 40.92025493400163,54.51965341401524 L 40.297848971024656,54.17425114920496 L 39.48785377368014,53.972298155653206 L 38.51021411194665,53.91876718630476 L 37.38900271889608,54.01497635128409 L 36.151827540112606,54.25855666164949 L 34.8291519344469,54.64351036176307 L 33.4535445650191,55.16035861393994 L 32.058877450643635,55.796374898890505 L 30.679491924311233,56.53589838486225" /><path fill="#FDD835" stroke="black" stroke-width="3" d="M 29.999999999999996,45.99999999999999 L 28.43565534959769,46.04924663761944 L 26.909830056250524,46.19577393481938 L 25.46009500260453,46.43597390324652 L 24.122147477075263,46.76393202250021 L 22.92893218813452,47.1715728752538 L 21.909830056250524,47.6488589908301 L 21.089934758116318,48.184038001041806 L 20.48943483704846,48.76393202250021 L 20.123116594048618,49.37426213983907 L 19.999999999999996,49.99999999999999 L 20.12311659404862,50.62573786016092 L 20.48943483704846,51.23606797749978 L 21.08993475811632,51.81596199895818 L 21.909830056250527,52.351141009169886 L 22.928932188134524,52.828427124746185 L 24.122147477075266,53.23606797749978 L 25.460095002604533,53.564026096753466 L 26.909830056250524,53.80422606518061 L 28.435655349597692,53.950753362380546 L 30.0,53.99999999999999 L 30.0,53.99999999999999 L 31.564344650402308,53.950753362380546 L 33.09016994374947,53.80422606518061 L 34.53990499739547,53.564026096753466 L 35.877852522924734,53.23606797749978 L 37.071067811865476,52.828427124746185 L 38.09016994374947,52.351141009169886 L 38.91006524188368,51.81596199895818 L 39.510565162951536,51.23606797749978 L 39.876883405951375,50.62573786016092 L 40.0,49.99999999999999 L 39.876883405951375,49.37426213983907 L 39.510565162951536,48.76393202250021 L 38.91006524188368,48.184038001041806 L 38.09016994374947,47.6488589908301 L 37.071067811865476,47.1715728752538 L 35.877852522924734,46.76393202250021 L 34.53990499739547,46.43597390324652 L 33.09016994374947,46.19577393481938 L 31.564344650402305,46.04924663761944 L 29.999999999999996,45.99999999999999" /><path fill="#FDD835" stroke="black" stroke-width="3" d="M 34.67949192431122,36.53589838486225 L 33.30010639797882,35.7963748988905 L 31.905439283603357,35.160358613939934 L 30.52983191417556,34.64351036176306 L 29.207156308509845,34.258556661649486 L 27.969981129726378,34.014976351284076 L 26.848769736675806,33.91876718630475 L 25.871130074942315,33.9722981556532 L 25.0611348775978,34.174251149204956 L 24.438728914620825,34.51965341401523 L 24.01923788646684,34.99999999999999 L 23.8129910544599,35.60346318003338 L 23.825066900098015,36.31518368784349 L 24.055168075984128,37.117636602463115 L 24.497628727505912,37.991062869945765 L 25.14155400498018,38.913955836850434 L 25.97108833101005,39.86359081542577 L 26.965805817422087,40.81658464084147 L 28.101213218422743,41.749471442310586 L 29.349353035598263,42.63928045070719 L 30.679491924311222,43.46410161513775 L 30.679491924311222,43.46410161513775 L 32.058877450643635,44.2036251011095 L 33.45354456501909,44.839641386060066 L 34.829151934446884,45.35648963823694 L 36.151827540112606,45.74144333835051 L 37.38900271889607,45.98502364871591 L 38.51021411194664,46.08123281369524 L 39.487853773680136,46.027701844346794 L 40.297848971024656,45.82574885079504 L 40.920254934001626,45.48034658598476 L 41.33974596215561,45.0 L 41.54599279416255,44.39653681996661 L 41.53391694852444,43.6848163121565 L 41.30381577263832,42.88236339753688 L 40.86135512111654,42.00893713005422 L 40.217429843642265,41.08604416314955 L 39.38789551761239,40.13640918457422 L 38.393178031200364,39.18341535915853 L 37.25777063019971,38.25052855768941 L 36.00963081302419,37.36071954929281 L 34.67949192431122,36.53589838486225" /><path fill="#FDD835" stroke="black" stroke-width="3" d="M 43.46410161513775,30.679491924311233 L 42.63928045070719,29.34935303559827 L 41.749471442310586,28.10121321842275 L 40.816584640841455,26.965805817422094 L 39.863590815425766,25.971088331010066 L 38.913955836850434,25.14155400498019 L 37.99106286994576,24.49762872750592 L 37.117636602463115,24.055168075984138 L 36.315183687843486,23.825066900098022 L 35.60346318003337,23.81299105445991 L 34.999999999999986,24.01923788646685 L 34.519653414015224,24.43872891462084 L 34.174251149204956,25.06113487759781 L 33.97229815565319,25.871130074942325 L 33.91876718630474,26.848769736675816 L 34.014976351284076,27.969981129726385 L 34.25855666164948,29.207156308509855 L 34.64351036176305,30.52983191417557 L 35.160358613939934,31.905439283603368 L 35.79637489889049,33.30010639797882 L 36.53589838486224,34.679491924311236 L 36.53589838486224,34.679491924311236 L 37.3607195492928,36.009630813024195 L 38.25052855768941,37.257770630199715 L 39.18341535915852,38.39317803120037 L 40.13640918457422,39.3878955176124 L 41.08604416314955,40.21742984364228 L 42.00893713005422,40.861355121116546 L 42.88236339753688,41.30381577263833 L 43.6848163121565,41.53391694852444 L 44.39653681996661,41.54599279416256 L 45.0,41.33974596215562 L 45.48034658598476,40.92025493400163 L 45.82574885079504,40.297848971024656 L 46.027701844346794,39.48785377368014 L 46.08123281369524,38.51021411194665 L 45.98502364871591,37.38900271889608 L 45.74144333835051,36.151827540112606 L 45.35648963823693,34.8291519344469 L 44.83964138606006,33.4535445650191 L 44.203625101109495,32.058877450643635 L 43.46410161513775,30.679491924311233" /></svg>