<?xml version='1.0' encoding='utf-8'?>
<svg xmlns="http://www.w3.org/2000/svg" height="100" viewbox="0 0 100 100" width="100">

<path fill="#FFA500" stroke="black" stroke-width="3" d="M 58.0,50.0 L 57.901506724761106,48.122786419517226 L 57.60845213036123,46.291796067500634 L 57.128052193506946,44.55211400312544 L 56.47213595499958,42.94657697249032 L 55.65685424949238,41.51471862576143 L 54.70228201833979,40.29179606750063 L 53.631923997916374,39.30792170973959 L 52.47213595499958,38.587321804458156 L 51.25147572032185,38.14773991285835 L 50.0,38.0 L 48.74852427967815,38.14773991285835 L 47.52786404500042,38.587321804458156 L 46.368076002083626,39.30792170973959 L 45.29771798166021,40.29179606750063 L 44.34314575050762,41.51471862576143 L 43.52786404500042,42.94657697249032 L 42.871947806493054,44.55211400312544 L 42.39154786963877,46.29179606750063 L 42.0984932752389,48.122786419517226 L 42.0,50.0 L 42.0,50.0 L 42.0984932752389,51.877213580482774 L 42.39154786963877,53.70820393249937 L 42.871947806493054,55.44788599687456 L 43.52786404500042,57.05342302750968 L 44.34314575050762,58.48528137423857 L 45.29771798166021,59.70820393249937 L 46.368076002083626,60.69207829026041 L 47.52786404500042,61.412678195541844 L 48.74852427967815,61.85226008714165 L 50.0,62.0 L 51.25147572032185,61.85226008714165 L 52.47213595499958,61.412678195541844 L 53.631923997916374,60.69207829026041 L 54.70228201833979,59.70820393249937 L 55.65685424949238,58.48528137423857 L 56.47213595499958,57.05342302750968 L 57.128052193506946,55.44788599687456 L 57.60845213036123,53.708203932499366 L 57.901506724761106,51.877213580482774 L 58.0,50.0" /><path fill="#FFD700" stroke="black" stroke-width="3" d="M 56.0,30.0 L 55.92613004357083,28.435655349597692 L 55.70633909777092,26.909830056250527 L 55.346039145130206,25.460095002604533 L 54.85410196624969,24.122147477075266 L 54.242640687119284,22.928932188134524 L 53.52671151375484,21.909830056250527 L 52.72394299843728,21.08993475811632 L 51.85410196624969,20.489434837048464 L 50.93860679024139,20.12311659404862 L 50.0,20.0 L 49.06139320975861,20.123116594048625 L 48.14589803375031,20.489434837048464 L 47.27605700156272,21.08993475811632 L 46.47328848624516,21.909830056250527 L 45.757359312880716,22.928932188134524 L 45.14589803375031,24.122147477075266 L 44.653960854869794,25.460095002604533 L 44.29366090222908,26.909830056250524 L 44.07386995642918,28.435655349597692 L 44.0,30.0 L 44.0,30.0 L 44.07386995642918,31.564344650402308 L 44.29366090222908,33.09016994374947 L 44.653960854869794,34.53990499739547 L 45.14589803375031,35.877852522924734 L 45.757359312880716,37.071067811865476 L 46.47328848624516,38.09016994374947 L 47.27605700156272,38.91006524188368 L 48.14589803375031,39.510565162951536 L 49.06139320975861,39.876883405951375 L 50.0,40.0 L 50.93860679024139,39.876883405951375 L 51.85410196624969,39.510565162951536 L 52.72394299843728,38.91006524188368 L 53.52671151375484,38.09016994374947 L 54.242640687119284,37.071067811865476 L 54.85410196624969,35.877852522924734 L 55.346039145130206,34.53990499739547 L 55.70633909777092,33.09016994374947 L 55.92613004357083,31.564344650402308 L 56.0,30.0" /><path fill="#FFD700" stroke="black" stroke-width="3" d="M 70.32050807568878,45.19615242270663 L 71.63833530499687,44.35000683866136 L 72.84984329787241,43.39674964940325 L 73.92520070676628,42.359853210611064 L 74.83792866336489,41.26484935386985 L 75.56555277620636,40.13870070824202 L 76.09015652478655,39.00913679085602 L 76.39882242375542,37.903971214165594 L 76.48395009427693,36.85041682250313 L 76.34344341058033,35.87441562153792 L 75.98076211353316,34.99999999999999 L 75.40483662033894,34.24870097251069 L 74.62984812802725,33.639018014545314 L 73.67487942531814,33.18596354395071 L 72.56344501103172,32.900693265394494 L 71.32291208908707,32.79023147989249 L 69.9838266971152,32.8572981232054 L 68.57916156163607,33.100241791993454 L 67.14350420010149,33.513080406847266 L 65.71220526142605,34.08564851093632 L 64.32050807568876,34.80384757729337 L 64.32050807568876,34.80384757729337 L 63.00268084638067,35.649993161338635 L 61.79117285350513,36.60325035059674 L 60.715815444611266,37.64014678938892 L 59.80308748801265,38.73515064613014 L 59.07546337517118,39.86129929175797 L 58.550859626590984,40.99086320914397 L 58.24219372762212,42.09602878583439 L 58.15706605710061,43.14958317749685 L 58.29757274079722,44.125584378462065 L 58.66025403784439,45.0 L 59.2361795310386,45.751299027489296 L 60.011168023350294,46.36098198545467 L 60.96613672605941,46.814036456049266 L 62.077571140345825,47.09930673460549 L 63.31810406229047,47.2097685201075 L 64.65718945426235,47.14270187679459 L 66.06185458974147,46.89975820800653 L 67.49751195127607,46.48691959315272 L 68.9288108899515,45.91435148906366 L 70.32050807568878,45.19615242270663" /><path fill="#FFD700" stroke="black" stroke-width="3" d="M 64.32050807568878,65.19615242270663 L 65.71220526142605,65.91435148906366 L 67.14350420010149,66.48691959315272 L 68.57916156163607,66.89975820800653 L 69.9838266971152,67.14270187679458 L 71.32291208908708,67.2097685201075 L 72.56344501103172,67.09930673460549 L 73.67487942531814,66.81403645604927 L 74.62984812802725,66.36098198545467 L 75.40483662033894,65.7512990274893 L 75.98076211353316,64.99999999999999 L 76.34344341058033,64.12558437846207 L 76.48395009427693,63.14958317749685 L 76.39882242375542,62.09602878583439 L 76.09015652478656,60.99086320914397 L 75.56555277620636,59.86129929175796 L 74.83792866336489,58.73515064613014 L 73.92520070676628,57.64014678938892 L 72.84984329787241,56.60325035059674 L 71.63833530499687,55.64999316133863 L 70.32050807568878,54.80384757729337 L 70.32050807568878,54.80384757729337 L 68.9288108899515,54.08564851093632 L 67.49751195127607,53.513080406847266 L 66.06185458974147,53.100241791993454 L 64.65718945426235,52.8572981232054 L 63.318104062290466,52.79023147989248 L 62.077571140345825,52.900693265394494 L 60.9661367260594,53.18596354395071 L 60.011168023350294,53.639018014545314 L 59.23617953103861,54.24870097251069 L 58.66025403784438,55.0 L 58.29757274079722,55.87441562153792 L 58.15706605710061,56.850416822503135 L 58.24219372762212,57.903971214165594 L 58.550859626590984,59.00913679085602 L 59.07546337517118,60.13870070824203 L 59.80308748801266,61.26484935386985 L 60.715815444611266,62.359853210611064 L 61.79117285350514,63.39674964940325 L 63.00268084638067,64.35000683866136 L 64.32050807568878,65.19615242270663" /><path fill="#FFD700" stroke="black" stroke-width="3" d="M 43.99999999999999,70.0 L 44.07386995642917,71.56434465040232 L 44.29366090222908,73.09016994374949 L 44.653960854869794,74.53990499739547 L 45.14589803375031,75.87785252292474 L 45.757359312880716,77.07106781186548 L 46.47328848624516,78.09016994374949 L 47.27605700156272,78.91006524188369 L 48.14589803375031,79.51056516295154 L 49.06139320975861,79.87688340595139 L 50.0,80.0 L 50.93860679024139,79.87688340595139 L 51.85410196624969,79.51056516295154 L 52.72394299843728,78.91006524188369 L 53.52671151375484,78.09016994374949 L 54.242640687119284,77.07106781186548 L 54.85410196624969,75.87785252292474 L 55.346039145130206,74.53990499739547 L 55.70633909777092,73.09016994374949 L 55.92613004357082,71.56434465040232 L 55.99999999999999,70.0 L 55.99999999999999,70.0 L 55.926130043570815,68.4356553495977 L 55.706339097770915,66.90983005625054 L 55.3460391451302,65.46009500260453 L 54.85410196624968,64.12214747707527 L 54.24264068711928,62.92893218813453 L 53.52671151375483,61.909830056250534 L 52.72394299843727,61.08993475811633 L 51.85410196624968,60.48943483704847 L 50.93860679024138,60.12311659404863 L 49.99999999999999,60.00000000000001 L 49.061393209758606,60.12311659404863 L 48.145898033750306,60.48943483704847 L 47.27605700156271,61.08993475811633 L 46.47328848624515,61.909830056250534 L 45.75735931288071,62.92893218813453 L 45.145898033750306,64.12214747707527 L 44.65396085486979,65.46009500260453 L 44.29366090222907,66.90983005625054 L 44.073869956429164,68.4356553495977 L 43.99999999999999,70.0" /><path fill="#FFD700" stroke="black" stroke-width="3" d="M 29.679491924311233,54.803847577293375 L 28.36166469500313,55.64999316133864 L 27.150156702127596,56.60325035059675 L 26.074799293233728,57.640146789388936 L 25.162071336635115,58.73515064613016 L 24.434447223793644,59.86129929175799 L 23.909843475213446,60.99086320914399 L 23.601177576244588,62.096028785834406 L 23.516049905723072,63.14958317749687 L 23.65655658941968,64.1255843784621 L 24.01923788646685,65.00000000000001 L 24.59516337966107,65.75129902748931 L 25.37015187197276,66.36098198545469 L 26.325120574681872,66.81403645604928 L 27.43655498896829,67.0993067346055 L 28.67708791091293,67.20976852010752 L 30.016173302884805,67.1427018767946 L 31.420838438363937,66.89975820800655 L 32.856495799898525,66.48691959315273 L 34.287794738573965,65.91435148906368 L 35.679491924311236,65.19615242270663 L 35.679491924311236,65.19615242270663 L 36.99731915361933,64.35000683866136 L 38.20882714649487,63.39674964940326 L 39.284184555388734,62.35985321061107 L 40.19691251198735,61.26484935386986 L 40.92453662482882,60.13870070824203 L 41.44914037340902,59.00913679085603 L 41.75780627237788,57.9039712141656 L 41.84293394289939,56.850416822503135 L 41.70242725920279,55.87441562153792 L 41.33974596215562,55.0 L 40.7638204689614,54.248700972510704 L 39.988831976649706,53.63901801454533 L 39.0338632739406,53.18596354395072 L 37.922428859654175,52.90069326539451 L 36.681895937709534,52.7902314798925 L 35.34281054573766,52.857298123205425 L 33.93814541025853,53.10024179199347 L 32.50248804872395,53.51308040684728 L 31.0711891100485,54.08564851093634 L 29.679491924311233,54.803847577293375" /><path fill="#FFD700" stroke="black" stroke-width="3" d="M 35.67949192431122,34.80384757729337 L 34.28779473857396,34.08564851093632 L 32.85649579989851,33.513080406847266 L 31.42083843836393,33.10024179199347 L 30.016173302884795,32.85729812320541 L 28.677087910912924,32.79023147989249 L 27.436554988968282,32.900693265394494 L 26.32512057468186,33.18596354395072 L 25.37015187197275,33.63901801454532 L 24.59516337966106,34.24870097251069 L 24.01923788646684,34.99999999999999 L 23.656556589419672,35.87441562153792 L 23.516049905723065,36.850416822503135 L 23.60117757624458,37.9039712141656 L 23.909843475213435,39.00913679085602 L 24.43444722379364,40.13870070824202 L 25.16207133663511,41.264849353869856 L 26.074799293233724,42.359853210611064 L 27.15015670212759,43.39674964940325 L 28.361664695003128,44.35000683866136 L 29.679491924311222,45.19615242270663 L 29.679491924311222,45.19615242270663 L 31.071189110048493,45.91435148906367 L 32.50248804872393,46.48691959315272 L 33.93814541025852,46.89975820800653 L 35.34281054573765,47.14270187679459 L 36.68189593770953,47.2097685201075 L 37.92242885965417,47.09930673460549 L 39.03386327394058,46.81403645604928 L 39.988831976649706,46.36098198545467 L 40.7638204689614,45.751299027489296 L 41.33974596215561,45.0 L 41.70242725920278,44.125584378462065 L 41.84293394289939,43.149583177496865 L 41.75780627237787,42.0960287858344 L 41.44914037340901,40.99086320914397 L 40.92453662482882,39.86129929175797 L 40.19691251198734,38.735150646130144 L 39.284184555388734,37.640146789388936 L 38.20882714649486,36.60325035059674 L 36.99731915361933,35.649993161338635 L 35.67949192431122,34.80384757729337" /></svg>