<?xml version='1.0' encoding='utf-8'?>
<svg xmlns="http://www.w3.org/2000/svg" fill="none" height="100" viewbox="0 0 100 100" width="100">

<circle cx="50" cy="50" fill="#FFD700" r="10" stroke="black" stroke-width="3" />

<path fill="#FFFFFF" stroke="black" stroke-width="3" d="M 56.0,30.0 L 55.92613004357083,28.12278641951723 L 55.70633909777092,26.29179606750063 L 55.346039145130206,24.55211400312544 L 54.85410196624969,22.946576972490323 L 54.242640687119284,21.514718625761432 L 53.52671151375484,20.29179606750063 L 52.72394299843728,19.30792170973959 L 51.85410196624969,18.587321804458156 L 50.93860679024139,18.14773991285835 L 50.0,18.0 L 49.06139320975861,18.14773991285835 L 48.14589803375031,18.587321804458156 L 47.27605700156272,19.307921709739585 L 46.47328848624516,20.29179606750063 L 45.757359312880716,21.51471862576143 L 45.14589803375031,22.94657697249032 L 44.653960854869794,24.55211400312544 L 44.29366090222908,26.29179606750063 L 44.07386995642918,28.12278641951723 L 44.0,30.0 L 44.0,30.0 L 44.07386995642918,31.87721358048277 L 44.29366090222908,33.70820393249937 L 44.653960854869794,35.44788599687456 L 45.14589803375031,37.05342302750968 L 45.757359312880716,38.48528137423857 L 46.47328848624516,39.70820393249937 L 47.27605700156272,40.69207829026041 L 48.14589803375031,41.412678195541844 L 49.06139320975861,41.85226008714165 L 50.0,42.0 L 50.93860679024139,41.85226008714165 L 51.85410196624969,41.412678195541844 L 52.72394299843728,40.69207829026041 L 53.52671151375484,39.70820393249937 L 54.242640687119284,38.48528137423857 L 54.85410196624969,37.05342302750968 L 55.346039145130206,35.44788599687456 L 55.70633909777092,33.708203932499366 L 55.92613004357083,31.87721358048277 L 56.0,30.0" /><path fill="#FFFFFF" stroke="black" stroke-width="3" d="M 68.38477631085023,40.100505063388326 L 69.65993281622806,38.72088066377646 L 70.79922284220761,37.27075930135986 L 71.77459328726249,35.78584777675811 L 72.5620272939665,34.30270953984571 L 73.14213562373095,32.85786437626904 L 73.50063408420789,31.486889169121554 L 73.62869525351218,30.22354187800906 L 73.5231658406449,29.098930306048025 L 73.1866443299829,28.140746122511942 L 72.62741699796952,27.372583002030474 L 71.85925387748804,26.813355670017103 L 70.90106969395197,26.476834159355093 L 69.77645812199094,26.371304746487816 L 68.51311083087845,26.49936591579211 L 67.14213562373095,26.85786437626905 L 65.69729046015428,27.43797270603349 L 64.21415222324188,28.22540671273751 L 62.729240698640126,29.200777157792373 L 61.27911933622354,30.340067183771936 L 59.89949493661166,31.615223689149758 L 59.89949493661166,31.615223689149758 L 58.624338431233845,32.99484808876163 L 57.485048405254275,34.44496945117823 L 56.50967796019941,35.92988097577998 L 55.7222439534954,37.41301921269238 L 55.14213562373095,38.85786437626905 L 54.783637163254014,40.22883958341654 L 54.655575993949725,41.492186874529025 L 54.761105406816995,42.616798446490066 L 55.097626917479005,43.57498263002614 L 55.656854249492376,44.34314575050762 L 56.42501736997385,44.902373082520995 L 57.38320155350992,45.238894593183005 L 58.50781312547096,45.34442400605026 L 59.771160416583456,45.216362836745986 L 61.14213562373095,44.85786437626905 L 62.58698078730761,44.27775604650459 L 64.07011902422002,43.49032203980059 L 65.55503054882176,42.51495159474571 L 67.00515191123837,41.375661568766155 L 68.38477631085023,40.100505063388326" /><path fill="#FFFFFF" stroke="black" stroke-width="3" d="M 70.0,56.0 L 71.87721358048277,55.92613004357083 L 73.70820393249937,55.70633909777092 L 75.44788599687456,55.346039145130206 L 77.05342302750968,54.85410196624969 L 78.48528137423857,54.242640687119284 L 79.70820393249937,53.52671151375484 L 80.69207829026041,52.72394299843728 L 81.41267819554184,51.85410196624969 L 81.85226008714166,50.93860679024139 L 82.0,50.0 L 81.85226008714166,49.06139320975861 L 81.41267819554184,48.14589803375031 L 80.69207829026041,47.27605700156272 L 79.70820393249937,46.47328848624516 L 78.48528137423858,45.757359312880716 L 77.05342302750968,45.14589803375031 L 75.44788599687456,44.653960854869794 L 73.70820393249937,44.29366090222908 L 71.87721358048277,44.07386995642918 L 70.0,44.0 L 70.0,44.0 L 68.12278641951724,44.07386995642918 L 66.29179606750063,44.29366090222908 L 64.55211400312544,44.653960854869794 L 62.94657697249032,45.14589803375031 L 61.51471862576143,45.757359312880716 L 60.29179606750063,46.47328848624516 L 59.30792170973959,47.27605700156272 L 58.587321804458156,48.14589803375031 L 58.14773991285835,49.06139320975861 L 58.0,50.0 L 58.14773991285835,50.93860679024139 L 58.587321804458156,51.85410196624969 L 59.30792170973959,52.72394299843728 L 60.29179606750063,53.52671151375484 L 61.51471862576143,54.242640687119284 L 62.94657697249032,54.85410196624969 L 64.55211400312544,55.346039145130206 L 66.29179606750063,55.70633909777092 L 68.12278641951724,55.92613004357083 L 70.0,56.0" /><path fill="#FFFFFF" stroke="black" stroke-width="3" d="M 59.899494936611674,68.38477631085023 L 61.27911933622354,69.65993281622806 L 62.72924069864014,70.79922284220761 L 64.21415222324188,71.77459328726249 L 65.69729046015429,72.5620272939665 L 67.14213562373095,73.14213562373095 L 68.51311083087845,73.50063408420789 L 69.77645812199094,73.62869525351218 L 70.90106969395197,73.5231658406449 L 71.85925387748806,73.1866443299829 L 72.62741699796953,72.62741699796952 L 73.1866443299829,71.85925387748804 L 73.52316584064491,70.90106969395197 L 73.62869525351218,69.77645812199094 L 73.50063408420789,68.51311083087845 L 73.14213562373095,67.14213562373095 L 72.56202729396651,65.69729046015428 L 71.77459328726249,64.21415222324188 L 70.79922284220763,62.729240698640126 L 69.65993281622806,61.27911933622354 L 68.38477631085024,59.89949493661166 L 68.38477631085024,59.89949493661166 L 67.00515191123837,58.624338431233845 L 65.55503054882178,57.485048405254275 L 64.07011902422002,56.50967796019941 L 62.58698078730762,55.7222439534954 L 61.14213562373095,55.14213562373095 L 59.77116041658346,54.783637163254014 L 58.507813125470975,54.655575993949725 L 57.383201553509934,54.761105406816995 L 56.42501736997386,55.097626917479005 L 55.65685424949238,55.656854249492376 L 55.097626917479005,56.42501736997385 L 54.761105406816995,57.38320155350992 L 54.65557599394974,58.50781312547096 L 54.783637163254014,59.771160416583456 L 55.14213562373095,61.14213562373095 L 55.72224395349541,62.58698078730761 L 56.50967796019941,64.07011902422002 L 57.48504840525429,65.55503054882176 L 58.624338431233845,67.00515191123837 L 59.899494936611674,68.38477631085023" /><path fill="#FFFFFF" stroke="black" stroke-width="3" d="M 43.99999999999999,70.0 L 44.07386995642917,71.87721358048277 L 44.29366090222908,73.70820393249937 L 44.653960854869794,75.44788599687456 L 45.14589803375031,77.05342302750968 L 45.757359312880716,78.48528137423858 L 46.47328848624516,79.70820393249937 L 47.27605700156272,80.69207829026041 L 48.14589803375031,81.41267819554184 L 49.06139320975861,81.85226008714166 L 50.0,82.0 L 50.93860679024139,81.85226008714166 L 51.85410196624969,81.41267819554184 L 52.72394299843728,80.69207829026043 L 53.52671151375484,79.70820393249937 L 54.242640687119284,78.48528137423858 L 54.85410196624969,77.0534230275097 L 55.346039145130206,75.44788599687456 L 55.70633909777092,73.70820393249937 L 55.92613004357082,71.87721358048277 L 55.99999999999999,70.0 L 55.99999999999999,70.0 L 55.926130043570815,68.12278641951724 L 55.706339097770915,66.29179606750063 L 55.3460391451302,64.55211400312544 L 54.85410196624968,62.94657697249033 L 54.24264068711928,61.51471862576144 L 53.52671151375483,60.291796067500634 L 52.72394299843727,59.307921709739595 L 51.85410196624968,58.58732180445816 L 50.93860679024138,58.147739912858356 L 49.99999999999999,58.00000000000001 L 49.061393209758606,58.147739912858356 L 48.145898033750306,58.58732180445816 L 47.27605700156271,59.307921709739595 L 46.47328848624515,60.291796067500634 L 45.75735931288071,61.51471862576144 L 45.145898033750306,62.94657697249033 L 44.65396085486979,64.55211400312544 L 44.29366090222907,66.29179606750064 L 44.073869956429164,68.12278641951724 L 43.99999999999999,70.0" /><path fill="#FFFFFF" stroke="black" stroke-width="3" d="M 31.61522368914977,59.899494936611674 L 30.34006718377194,61.27911933622353 L 29.200777157792384,62.72924069864014 L 28.225406712737513,64.21415222324188 L 27.437972706033506,65.69729046015429 L 26.857864376269056,67.14213562373095 L 26.49936591579212,68.51311083087845 L 26.37130474648783,69.77645812199094 L 26.476834159355104,70.90106969395197 L 26.813355670017103,71.85925387748804 L 27.372583002030485,72.62741699796953 L 28.140746122511956,73.1866443299829 L 29.09893030604803,73.52316584064491 L 30.223541878009065,73.62869525351218 L 31.48688916912156,73.50063408420789 L 32.85786437626905,73.14213562373095 L 34.30270953984572,72.56202729396651 L 35.78584777675812,71.77459328726249 L 37.270759301359874,70.79922284220763 L 38.72088066377647,69.65993281622806 L 40.10050506338834,68.38477631085024 L 40.10050506338834,68.38477631085024 L 41.37566156876616,67.00515191123836 L 42.514951594745725,65.55503054882176 L 43.49032203980059,64.07011902422002 L 44.27775604650461,62.58698078730761 L 44.85786437626905,61.14213562373095 L 45.216362836745986,59.771160416583456 L 45.344424006050275,58.50781312547097 L 45.238894593183005,57.38320155350993 L 44.902373082521,56.42501736997386 L 44.343145750507624,55.65685424949238 L 43.57498263002615,55.097626917479005 L 42.61679844649008,54.761105406816995 L 41.49218687452904,54.655575993949725 L 40.228839583416544,54.783637163254014 L 38.85786437626905,55.14213562373095 L 37.41301921269239,55.72224395349539 L 35.92988097577998,56.50967796019941 L 34.44496945117824,57.48504840525429 L 32.99484808876163,58.62433843123384 L 31.61522368914977,59.899494936611674" /><path fill="#FFFFFF" stroke="black" stroke-width="3" d="M 29.999999999999996,43.99999999999999 L 28.122786419517226,44.073869956429164 L 26.291796067500627,44.29366090222907 L 24.552114003125435,44.65396085486979 L 22.94657697249032,45.145898033750306 L 21.51471862576143,45.75735931288071 L 20.291796067500627,46.47328848624515 L 19.307921709739585,47.27605700156272 L 18.587321804458153,48.14589803375031 L 18.147739912858345,49.06139320975861 L 17.999999999999996,50.0 L 18.147739912858345,50.93860679024139 L 18.587321804458156,51.85410196624969 L 19.307921709739585,52.72394299843728 L 20.29179606750063,53.52671151375483 L 21.51471862576143,54.24264068711928 L 22.94657697249032,54.85410196624968 L 24.55211400312544,55.3460391451302 L 26.29179606750063,55.706339097770915 L 28.12278641951723,55.926130043570815 L 30.0,55.99999999999999 L 30.0,55.99999999999999 L 31.87721358048277,55.926130043570815 L 33.70820393249937,55.706339097770915 L 35.44788599687456,55.3460391451302 L 37.05342302750968,54.85410196624968 L 38.48528137423857,54.24264068711928 L 39.70820393249937,53.52671151375483 L 40.69207829026041,52.72394299843727 L 41.412678195541844,51.85410196624968 L 41.85226008714165,50.93860679024138 L 42.0,49.99999999999999 L 41.85226008714165,49.061393209758606 L 41.412678195541844,48.145898033750306 L 40.69207829026041,47.27605700156271 L 39.70820393249937,46.47328848624515 L 38.48528137423857,45.75735931288071 L 37.05342302750968,45.145898033750306 L 35.44788599687456,44.65396085486979 L 33.708203932499366,44.29366090222907 L 31.877213580482767,44.073869956429164 L 29.999999999999996,43.99999999999999" /><path fill="#FFFFFF" stroke="black" stroke-width="3" d="M 40.100505063388326,31.615223689149765 L 38.720880663776455,30.34006718377194 L 37.27075930135986,29.20077715779238 L 35.785847776758104,28.22540671273751 L 34.30270953984571,27.437972706033502 L 32.857864376269035,26.857864376269053 L 31.486889169121554,26.49936591579212 L 30.22354187800906,26.37130474648783 L 29.09893030604802,26.4768341593551 L 28.140746122511942,26.813355670017103 L 27.372583002030474,27.37258300203048 L 26.813355670017096,28.140746122511956 L 26.476834159355086,29.098930306048025 L 26.371304746487823,30.223541878009065 L 26.49936591579211,31.48688916912156 L 26.857864376269042,32.85786437626905 L 27.43797270603349,34.302709539845715 L 28.22540671273751,35.78584777675812 L 29.200777157792373,37.270759301359874 L 30.340067183771936,38.72088066377647 L 31.615223689149758,40.10050506338834 L 31.615223689149758,40.10050506338834 L 32.99484808876163,41.375661568766155 L 34.444969451178224,42.514951594745725 L 35.92988097577998,43.49032203980059 L 37.41301921269238,44.2777560465046 L 38.85786437626905,44.85786437626905 L 40.228839583416544,45.216362836745986 L 41.49218687452903,45.344424006050275 L 42.616798446490066,45.238894593183 L 43.57498263002614,44.902373082520995 L 44.34314575050762,44.34314575050762 L 44.902373082520995,43.57498263002614 L 45.238894593183005,42.61679844649007 L 45.344424006050275,41.49218687452904 L 45.216362836745986,40.228839583416544 L 44.857864376269035,38.85786437626905 L 44.27775604650459,37.41301921269238 L 43.49032203980059,35.92988097577998 L 42.51495159474571,34.44496945117823 L 41.37566156876615,32.99484808876163 L 40.100505063388326,31.615223689149765" /></svg>