<?xml version='1.0' encoding='utf-8'?>
<svg xmlns="http://www.w3.org/2000/svg" fill="none" height="100" viewbox="0 0 100 100" width="100">

<circle cx="50" cy="50" fill="#FFD54F" r="8" stroke="black" stroke-width="2" />

<path fill="#FFAB40" stroke="black" stroke-width="3" d="M 56.0,25.0 L 55.92613004357083,22.809917489436767 L 55.70633909777092,20.673762078750737 L 55.346039145130206,18.644133003646346 L 54.85410196624969,16.771006467905377 L 54.242640687119284,15.100505063388336 L 53.52671151375484,13.673762078750736 L 52.72394299843728,12.525908661362852 L 51.85410196624969,11.68520877186785 L 50.93860679024139,11.172363231668072 L 50.0,11.0 L 49.06139320975861,11.172363231668072 L 48.14589803375031,11.685208771867849 L 47.27605700156272,12.52590866136285 L 46.47328848624516,13.673762078750736 L 45.757359312880716,15.100505063388335 L 45.14589803375031,16.771006467905373 L 44.653960854869794,18.644133003646346 L 44.29366090222908,20.673762078750734 L 44.07386995642918,22.809917489436767 L 44.0,25.0 L 44.0,25.0 L 44.07386995642918,27.190082510563233 L 44.29366090222908,29.326237921249266 L 44.653960854869794,31.355866996353654 L 45.14589803375031,33.22899353209463 L 45.757359312880716,34.89949493661167 L 46.47328848624516,36.326237921249266 L 47.27605700156272,37.47409133863715 L 48.14589803375031,38.31479122813215 L 49.06139320975861,38.82763676833193 L 50.0,39.0 L 50.93860679024139,38.82763676833193 L 51.85410196624969,38.31479122813215 L 52.72394299843728,37.47409133863715 L 53.52671151375484,36.326237921249266 L 54.242640687119284,34.89949493661166 L 54.85410196624969,33.22899353209462 L 55.346039145130206,31.355866996353654 L 55.70633909777092,29.326237921249263 L 55.92613004357083,27.190082510563233 L 56.0,25.0" /><path fill="#FFAB40" stroke="black" stroke-width="3" d="M 69.54873327356151,33.30128665438116 L 70.77626942444931,31.486053013275594 L 71.85405546109348,29.628677106876005 L 72.75555271430501,27.774893694275157 L 73.45856332981204,25.97034907544571 L 73.94577685310227,24.25947712784346 L 74.20519647026336,22.684405196876845 L 74.23043440935643,21.283916780850298 L 74.02086922856108,20.09249655252097 L 73.58166111813549,19.13948123200737 L 72.92362483940644,18.448337219377052 L 72.06296342945348,18.036082773996448 L 71.02086922856108,17.91286896850489 L 69.82300205446761,18.08172973571675 L 68.49885737249244,18.538507163126525 L 67.08104001929007,19.27195387451402 L 65.60446136356235,20.26400997767478 L 64.10547967229691,21.490247758903564 L 62.62100484956771,22.92047317437663 L 61.18758959219983,24.51946932771903 L 59.840529341062144,26.247863626871478 L 59.840529341062144,26.247863626871478 L 58.61299319017434,28.063097267977042 L 57.53520715353018,29.92047317437664 L 56.633709900318635,31.774256586977486 L 55.93069928481161,33.57880120580694 L 55.44348576152137,35.28967315340918 L 55.18406614436029,36.8647450843758 L 55.15882820526723,38.26523350040234 L 55.368393386062564,39.456653728731666 L 55.80760149648816,40.40966904924527 L 56.4656377752172,41.100813061875584 L 57.32629918517017,41.51306750725619 L 58.368393386062564,41.63628131274775 L 59.566260560156046,41.46742054553589 L 60.89040524213121,41.01064311812611 L 62.30822259533359,40.27719640673862 L 63.7848012510613,39.285140303577855 L 65.28378294232674,38.05890252234907 L 66.76825776505595,36.628677106876 L 68.20167302242383,35.02968095353361 L 69.54873327356151,33.30128665438116" /><path fill="#FFAB40" stroke="black" stroke-width="3" d="M 75.63051487362853,47.98091423839724 L 77.69058004461338,47.233887020129444 L 79.65426543030357,46.36474508437579 L 81.47321857940524,45.39488959011124 L 83.1026508286281,44.34820159837044 L 84.5024401482207,43.25045404126831 L 85.63811907950027,42.128677106876005 L 86.4817234380764,41.01049266628243 L 87.01248088487863,39.923434131456425 L 87.21732241008368,38.89426849126582 L 87.09120413551099,37.94833721937705 L 86.63723151164307,37.10893228306992 L 85.86658285112831,36.396722617701585 L 84.79823408162487,35.82924518892176 L 83.45849149548418,35.42047317437663 L 81.88034400152777,35.180471897700826 L 80.1026508286281,35.115150986844675 L 78.16918468252734,35.226118859421135 L 76.12755391654873,35.510643118126104 L 74.02803025593472,35.961717831428416 L 71.92231094112915,36.568236042855396 L 71.92231094112915,36.568236042855396 L 69.8622457701443,37.31526326112319 L 67.8985603844541,38.18440519687684 L 66.07960723535244,39.154260691141396 L 64.45017498612958,40.2009486828822 L 63.05038566653697,41.298696239984324 L 61.91470673525741,42.42047317437663 L 61.07110237668127,43.5386576149702 L 60.54034492987905,44.62571614979621 L 60.33550340467399,45.65488178998681 L 60.46162167924669,46.600813061875584 L 60.91559430311462,47.44021799818271 L 61.68624296362937,48.15242766355105 L 62.75459173313281,48.71990509233087 L 64.09433431927349,49.128677106876005 L 65.67248181322991,49.3686783835518 L 67.45017498612958,49.43399929440796 L 69.38364113223034,49.3230314218315 L 71.42527189820895,49.038507163126525 L 73.52479555882296,48.58743244982423 L 75.63051487362853,47.98091423839724" /><path fill="#FFAB40" stroke="black" stroke-width="3" d="M 71.92231094112915,63.431763957144604 L 74.02803025593471,64.03828216857158 L 76.12755391654872,64.48935688187389 L 78.16918468252734,64.77388114057887 L 80.1026508286281,64.88484901315533 L 81.88034400152777,64.81952810229916 L 83.45849149548418,64.57952682562336 L 84.79823408162486,64.17075481107824 L 85.86658285112831,63.603277382298415 L 86.63723151164307,62.891067716930074 L 87.09120413551099,62.05166278062294 L 87.21732241008368,61.10573150873417 L 87.01248088487863,60.07656586854357 L 86.48172343807641,58.98950733371756 L 85.63811907950026,57.871322893123995 L 84.5024401482207,56.74954595873169 L 83.1026508286281,55.65179840162956 L 81.47321857940523,54.60511040988875 L 79.65426543030357,53.6352549156242 L 77.69058004461338,52.766112979870556 L 75.63051487362853,52.01908576160276 L 75.63051487362853,52.01908576160276 L 73.52479555882296,51.41256755017578 L 71.42527189820895,50.96149283687347 L 69.38364113223034,50.67696857816849 L 67.45017498612957,50.56600070559203 L 65.6724818132299,50.63132161644819 L 64.09433431927349,50.871322893123995 L 62.754591733132806,51.28009490766913 L 61.68624296362936,51.84757233644895 L 60.91559430311461,52.55978200181729 L 60.46162167924669,53.399186938124416 L 60.335503404673986,54.34511821001319 L 60.54034492987904,55.374283850203796 L 61.07110237668127,56.4613423850298 L 61.914706735257404,57.57952682562337 L 63.05038566653698,58.701303760015676 L 64.45017498612958,59.7990513171178 L 66.07960723535244,60.845739308858604 L 67.8985603844541,61.815594803123155 L 69.86224577014428,62.684736738876815 L 71.92231094112915,63.431763957144604" /><path fill="#FFAB40" stroke="black" stroke-width="3" d="M 59.840529341062144,73.75213637312852 L 61.18758959219983,75.48053067228096 L 62.62100484956771,77.07952682562336 L 64.10547967229691,78.50975224109644 L 65.60446136356236,79.73599002232521 L 67.08104001929007,80.72804612548597 L 68.49885737249244,81.46149283687348 L 69.82300205446761,81.91827026428325 L 71.02086922856108,82.08713103149512 L 72.06296342945349,81.96391722600356 L 72.92362483940646,81.55166278062293 L 73.58166111813549,80.86051876799263 L 74.0208692285611,79.90750344747903 L 74.23043440935643,78.71608321914971 L 74.20519647026336,77.31559480312316 L 73.94577685310227,75.74052287215655 L 73.45856332981205,74.02965092455429 L 72.75555271430503,72.22510630572485 L 71.85405546109348,70.371322893124 L 70.77626942444931,68.5139469867244 L 69.54873327356151,66.69871334561884 L 69.54873327356151,66.69871334561884 L 68.20167302242382,64.9703190464664 L 66.76825776505595,63.371322893123995 L 65.28378294232675,61.94109747765093 L 63.7848012510613,60.71485969642214 L 62.30822259533358,59.72280359326138 L 60.89040524213121,58.98935688187389 L 59.56626056015604,58.53257945446411 L 58.368393386062564,58.36371868725225 L 57.32629918517017,58.48693249274381 L 56.4656377752172,58.899186938124416 L 55.80760149648816,59.59033095075473 L 55.368393386062564,60.543346271268334 L 55.15882820526723,61.73476649959766 L 55.18406614436029,63.13525491562421 L 55.44348576152137,64.71032684659083 L 55.930699284811624,66.42119879419307 L 56.633709900318635,68.22574341302251 L 57.53520715353018,70.07952682562336 L 58.612993190174336,71.93690273202296 L 59.840529341062144,73.75213637312852" /><path fill="#FFAB40" stroke="black" stroke-width="3" d="M 44.0,75.0 L 44.07386995642917,77.19008251056324 L 44.29366090222908,79.32623792124927 L 44.653960854869794,81.35586699635365 L 45.14589803375031,83.22899353209463 L 45.757359312880716,84.89949493661167 L 46.47328848624516,86.32623792124927 L 47.27605700156272,87.47409133863715 L 48.14589803375031,88.31479122813215 L 49.06139320975861,88.82763676833193 L 50.0,89.0 L 50.93860679024139,88.82763676833193 L 51.85410196624969,88.31479122813215 L 52.72394299843728,87.47409133863715 L 53.52671151375484,86.32623792124927 L 54.242640687119284,84.89949493661167 L 54.85410196624969,83.22899353209463 L 55.346039145130206,81.35586699635365 L 55.70633909777092,79.32623792124927 L 55.92613004357082,77.19008251056324 L 56.0,75.0 L 56.0,75.0 L 55.92613004357082,72.80991748943677 L 55.706339097770915,70.67376207875074 L 55.3460391451302,68.64413300364635 L 54.85410196624968,66.77100646790538 L 54.24264068711928,65.10050506338834 L 53.52671151375483,63.67376207875074 L 52.72394299843727,62.525908661362855 L 51.85410196624968,61.685208771867856 L 50.93860679024138,61.17236323166808 L 49.99999999999999,61.00000000000001 L 49.061393209758606,61.17236323166808 L 48.145898033750306,61.685208771867856 L 47.27605700156271,62.525908661362855 L 46.47328848624515,63.67376207875074 L 45.75735931288071,65.10050506338834 L 45.145898033750306,66.77100646790538 L 44.65396085486979,68.64413300364635 L 44.29366090222907,70.67376207875074 L 44.07386995642917,72.80991748943677 L 44.0,75.0" /><path fill="#FFAB40" stroke="black" stroke-width="3" d="M 30.45126672643849,66.69871334561884 L 29.22373057555069,68.5139469867244 L 28.145944538906534,70.371322893124 L 27.24444728569499,72.22510630572485 L 26.54143667018797,74.02965092455429 L 26.054223146897726,75.74052287215655 L 25.79480352973664,77.31559480312316 L 25.76956559064358,78.71608321914971 L 25.979130771438918,79.90750344747903 L 26.418338881864514,80.86051876799263 L 27.076375160593557,81.55166278062295 L 27.937036570546525,81.96391722600356 L 28.979130771438918,82.08713103149512 L 30.176997945532403,81.91827026428325 L 31.501142627507566,81.46149283687348 L 32.91895998070994,80.72804612548599 L 34.39553863643765,79.73599002232523 L 35.89452032770309,78.50975224109644 L 37.3789951504323,77.07952682562338 L 38.81241040780018,75.48053067228096 L 40.15947065893786,73.75213637312852 L 40.15947065893786,73.75213637312852 L 41.387006809825664,71.93690273202296 L 42.46479284646983,70.07952682562336 L 43.366290099681365,68.22574341302251 L 44.06930071518839,66.42119879419306 L 44.556514238478634,64.71032684659082 L 44.81593385563971,63.1352549156242 L 44.84117179473279,61.73476649959766 L 44.63160661393744,60.543346271268334 L 44.19239850351184,59.59033095075473 L 43.5343622247828,58.899186938124416 L 42.67370081482983,58.48693249274381 L 41.63160661393744,58.36371868725225 L 40.43373943984396,58.53257945446411 L 39.10959475786879,58.98935688187389 L 37.69177740466641,59.72280359326139 L 36.215198748938704,60.71485969642215 L 34.71621705767326,61.94109747765093 L 33.23174223494406,63.371322893124 L 31.798326977576174,64.9703190464664 L 30.45126672643849,66.69871334561884" /><path fill="#FFAB40" stroke="black" stroke-width="3" d="M 24.369485126371476,52.019085761602774 L 22.309419955386616,52.76611297987056 L 20.345734569696432,53.63525491562422 L 18.526781420594762,54.60511040988877 L 16.8973491713719,55.65179840162958 L 15.4975598517793,56.7495459587317 L 14.361880920499736,57.87132289312401 L 13.518276561923596,58.989507333717576 L 12.987519115121373,60.07656586854358 L 12.782677589916315,61.105731508734195 L 12.908795864489013,62.05166278062296 L 13.362768488356934,62.891067716930095 L 14.13341714887169,63.60327738229843 L 15.201765918375138,64.17075481107824 L 16.541508504515818,64.57952682562339 L 18.119655998472226,64.81952810229919 L 19.8973491713719,64.88484901315533 L 21.830815317472663,64.77388114057888 L 23.87244608345127,64.4893568818739 L 25.971969744065284,64.0382821685716 L 28.077689058870845,63.43176395714462 L 28.077689058870845,63.43176395714462 L 30.13775422985571,62.68473673887682 L 32.1014396155459,61.81559480312317 L 33.92039276464756,60.84573930885861 L 35.54982501387043,59.79905131711781 L 36.94961433346303,58.70130376001569 L 38.085293264742596,57.57952682562338 L 38.92889762331873,56.46134238502981 L 39.45965507012095,55.374283850203796 L 39.66449659532601,54.3451182100132 L 39.53837832075331,53.39918693812443 L 39.08440569688539,52.5597820018173 L 38.31375703637063,51.84757233644896 L 37.24540826686719,51.28009490766914 L 35.905665680726514,50.87132289312401 L 34.3275181867701,50.631321616448204 L 32.54982501387042,50.566000705592046 L 30.61635886776966,50.676968578168506 L 28.574728101791052,50.96149283687348 L 26.47520444117704,51.41256755017579 L 24.369485126371476,52.019085761602774" /><path fill="#FFAB40" stroke="black" stroke-width="3" d="M 28.07768905887084,36.568236042855396 L 25.971969744065277,35.96171783142841 L 23.872446083451266,35.510643118126104 L 21.830815317472656,35.22611885942113 L 19.897349171371893,35.11515098684467 L 18.11965599847222,35.180471897700826 L 16.54150850451581,35.42047317437663 L 15.20176591837513,35.82924518892177 L 14.133417148871686,36.396722617701585 L 13.362768488356927,37.108932283069926 L 12.908795864489008,37.94833721937705 L 12.782677589916307,38.89426849126583 L 12.987519115121366,39.92343413145643 L 13.518276561923589,41.01049266628244 L 14.361880920499729,42.128677106876005 L 15.497559851779293,43.25045404126831 L 16.89734917137189,44.34820159837044 L 18.52678142059476,45.39488959011124 L 20.345734569696425,46.36474508437579 L 22.309419955386616,47.233887020129444 L 24.369485126371472,47.98091423839724 L 24.369485126371472,47.98091423839724 L 26.47520444117704,48.58743244982422 L 28.574728101791052,49.038507163126525 L 30.616358867769655,49.3230314218315 L 32.549825013870425,49.43399929440797 L 34.3275181867701,49.36867838355181 L 35.90566568072651,49.128677106876005 L 37.24540826686719,48.71990509233087 L 38.31375703637063,48.15242766355105 L 39.08440569688538,47.44021799818271 L 39.53837832075331,46.60081306187558 L 39.66449659532601,45.65488178998681 L 39.45965507012095,44.625716149796204 L 38.92889762331873,43.5386576149702 L 38.08529326474259,42.42047317437663 L 36.94961433346302,41.29869623998432 L 35.54982501387042,40.20094868288219 L 33.92039276464755,39.15426069114139 L 32.101439615545885,38.18440519687684 L 30.1377542298557,37.315263261123185 L 28.07768905887084,36.568236042855396" /><path fill="#FFAB40" stroke="black" stroke-width="3" d="M 40.15947065893786,26.247863626871478 L 38.81241040780018,24.51946932771903 L 37.378995150432296,22.920473174376635 L 35.89452032770309,21.490247758903564 L 34.39553863643765,20.264009977674785 L 32.91895998070993,19.27195387451402 L 31.501142627507562,18.53850716312653 L 30.176997945532392,18.081729735716756 L 28.979130771438918,17.91286896850489 L 27.937036570546518,18.036082773996455 L 27.076375160593543,18.44833721937706 L 26.418338881864514,19.139481232007377 L 25.979130771438903,20.092496552520977 L 25.769565590643573,21.283916780850305 L 25.794803529736633,22.68440519687685 L 26.05422314689772,24.25947712784346 L 26.541436670187956,25.970349075445707 L 27.24444728569498,27.774893694275157 L 28.145944538906534,29.628677106876005 L 29.22373057555069,31.486053013275598 L 30.45126672643849,33.30128665438116 L 30.45126672643849,33.30128665438116 L 31.798326977576174,35.02968095353361 L 33.231742234944065,36.62867710687601 L 34.71621705767326,38.05890252234907 L 36.215198748938704,39.28514030357786 L 37.691777404666425,40.277196406738625 L 39.10959475786879,41.01064311812611 L 40.43373943984396,41.46742054553589 L 41.631606613937436,41.636281312747755 L 42.67370081482984,41.51306750725619 L 43.5343622247828,41.100813061875584 L 44.19239850351184,40.40966904924527 L 44.63160661393745,39.456653728731666 L 44.84117179473279,38.26523350040234 L 44.81593385563971,36.86474508437579 L 44.55651423847863,35.28967315340917 L 44.06930071518838,33.578801205806926 L 43.366290099681365,31.77425658697748 L 42.46479284646982,29.92047317437663 L 41.387006809825664,28.06309726797704 L 40.15947065893786,26.247863626871478" /></svg>