<?xml version='1.0' encoding='utf-8'?>
<svg xmlns="http://www.w3.org/2000/svg" height="100" viewbox="0 0 100 100" width="100">

<path fill="#FF80AB" stroke="black" stroke-width="3" d="M 50.0,50.0 L 47.435,45.725 L 45.68,41.9 L 44.644999999999996,38.525 L 44.24,35.6 L 44.375,33.125 L 44.96,31.1 L 45.905,29.525000000000002 L 47.120000000000005,28.4 L 48.515,27.724999999999998 L 50.0,27.5 L 51.485,27.725 L 52.879999999999995,28.400000000000002 L 54.095,29.525 L 55.03999999999999,31.099999999999998 L 55.625,33.125 L 55.760000000000005,35.6 L 55.355,38.525 L 54.32,41.9 L 52.565,45.725 L 50.0,50.0" /><path fill="#FF80AB" stroke="black" stroke-width="3" d="M 50.0,50.0 L 53.27313801659004,46.23949238475004 L 56.368604366290974,43.388398195167866 L 59.258587519609044,41.36112234478693 L 61.91527594705052,40.072069747140674 L 64.31085811912163,39.43564531576253 L 66.41752250632867,39.36625396418592 L 68.20745757917786,39.778300605944295 L 69.65285180817547,40.5861901545711 L 70.72589366382775,41.70432752359975 L 71.39877161664096,43.04711762656368 L 71.64367413712134,44.528965376996354 L 71.43278969577517,46.06427568843118 L 70.73830676310868,47.5674534744016 L 69.53241380962814,48.952903648441065 L 67.7872993058398,50.13503112408301 L 65.4751517222499,51.02824081486085 L 62.568159529364735,51.54693763430802 L 59.038511197690525,51.60552649595799 L 54.858395197733515,51.118412313344166 L 50.0,50.0" /><path fill="#FF80AB" stroke="black" stroke-width="3" d="M 50.0,50.0 L 54.58791054412205,51.9508784788227 L 58.2560139592688,54.01380536453358 L 61.07712177493397,56.135879984426325 L 63.124045520611304,58.264201665794594 L 64.46959672579456,60.34586973593207 L 65.18658691997747,62.32798352213244 L 65.34782763265379,64.15764235168936 L 65.02613039331726,65.78194555189654 L 64.29430673146163,67.14799245004762 L 63.225168176580645,68.20288237343631 L 61.89152625816804,68.89371464935627 L 60.36619250571757,69.16758860510117 L 58.72197844872298,68.97160356796472 L 57.03169561667801,68.25285886524057 L 55.36815553907641,66.9584538242224 L 53.80416974541191,65.0354877722039 L 52.412549765178284,62.43106003647871 L 51.26610712786926,59.09226994434056 L 50.43765336297858,54.96621682308309 L 50.0,50.0" /><path fill="#FF80AB" stroke="black" stroke-width="3" d="M 50.0,50.0 L 49.56234663702142,54.96621682308309 L 48.73389287213075,59.09226994434056 L 47.587450234821716,62.43106003647871 L 46.19583025458809,65.03548777220388 L 44.6318444609236,66.9584538242224 L 42.96830438332199,68.25285886524057 L 41.278021551277035,68.97160356796472 L 39.633807494282436,69.16758860510119 L 38.10847374183196,68.89371464935627 L 36.77483182341936,68.20288237343632 L 35.705693268538376,67.14799245004762 L 34.97386960668274,65.78194555189654 L 34.65217236734621,64.15764235168938 L 34.81341308002253,62.32798352213244 L 35.53040327420544,60.34586973593207 L 36.87595447938869,58.26420166579459 L 38.92287822506603,56.13587998442633 L 41.7439860407312,54.013805364533596 L 45.41208945587795,51.9508784788227 L 50.0,50.0" /><path fill="#FF80AB" stroke="black" stroke-width="3" d="M 50.0,50.0 L 45.14160480226647,51.118412313344166 L 40.96148880230948,51.60552649595799 L 37.431840470635265,51.54693763430803 L 34.524848277750095,51.02824081486084 L 32.212700694160205,50.135031124083 L 30.46758619037186,48.95290364844107 L 29.26169323689132,47.56745347440161 L 28.56721030422483,46.06427568843118 L 28.35632586287865,44.528965376996354 L 28.601228383359043,43.04711762656368 L 29.274106336172252,41.704327523599744 L 30.34714819182453,40.5861901545711 L 31.79254242082213,39.778300605944295 L 33.58247749367132,39.36625396418593 L 35.68914188087836,39.43564531576253 L 38.08472405294948,40.072069747140674 L 40.74141248039095,41.361122344786935 L 43.63139563370902,43.388398195167866 L 46.726861983409954,46.23949238475004 L 50.0,50.0" /><circle cx="50" cy="50" fill="#F06292" r="7" stroke="black" stroke-width="2" />
</svg>