<?xml version='1.0' encoding='utf-8'?>
<svg xmlns="http://www.w3.org/2000/svg" fill="none" height="100" viewbox="0 0 100 100" width="100">

<circle cx="50" cy="50" fill="#FFD700" r="5" stroke="black" stroke-width="2" />

<path d="M50,50                     C50,20  65,20  60,40                     C58,45  55,48  50,50 Z" fill="#F8BBD0" stroke="black" stroke-width="3" />
<path d="M50,50                     C80,50  80,65  60,60                    C55,58  52,55  50,50 Z" fill="#F8BBD0" stroke="black" stroke-width="3" />
<path d="M50,50                     C50,80  35,80  40,60                    C42,55  45,52  50,50 Z" fill="#F8BBD0" stroke="black" stroke-width="3" />
<path d="M50,50                     C20,50  20,35  40,40                    C45,42  48,45  50,50 Z" fill="#F8BBD0" stroke="black" stroke-width="3" />
</svg>