<svg height="100" viewbox="0 0 100 100" width="100" xmlns="http://www.w3.org/2000/svg">
<!-- Large white petals with pink base -->
<path d="M50,50 
               C50,20 70,20 60,40 
               C55,47 50,48 50,50 Z" fill="#FFF3E0" stroke="black" stroke-width="3"></path>
<path d="M50,50 
               C80,50 80,70 60,60 
               C55,55 52,52 50,50 Z" fill="#FFE0E0" stroke="black" stroke-width="3"></path>
<path d="M50,50 
               C50,80 30,80 40,60 
               C45,55 48,52 50,50 Z" fill="#FFF3E0" stroke="black" stroke-width="3"></path>
<path d="M50,50 
               C20,50 20,30 40,40 
               C45,47 48,48 50,50 Z" fill="#FFE0E0" stroke="black" stroke-width="3"></path>
<!-- Center -->
<circle cx="50" cy="50" fill="#FFCCBC" r="4" stroke="black" stroke-width="2"></circle>
</svg>