<?xml version='1.0' encoding='utf-8'?>
<svg xmlns="http://www.w3.org/2000/svg" height="100" viewbox="0 0 100 100" width="100">

<path fill="#CE93D8" stroke="black" stroke-width="3" d="M 45.0,50.0 L 44.876883405951375,47.653483024396536 L 44.510565162951536,45.36474508437579 L 43.91006524188368,43.1901425039068 L 43.09016994374947,41.1832212156129 L 42.071067811865476,39.39339828220179 L 40.877852522924734,37.864745084375784 L 39.53990499739547,36.634902137174485 L 38.09016994374947,35.734152255572695 L 36.56434465040231,35.18467489107293 L 35.0,35.0 L 33.43565534959769,35.18467489107294 L 31.909830056250527,35.734152255572695 L 30.460095002604533,36.63490213717448 L 29.12214747707527,37.864745084375784 L 27.928932188134524,39.39339828220179 L 26.909830056250527,41.1832212156129 L 26.08993475811632,43.1901425039068 L 25.489434837048464,45.364745084375784 L 25.123116594048625,47.653483024396536 L 25.0,50.0 L 25.0,50.0 L 25.123116594048625,52.346516975603464 L 25.489434837048464,54.635254915624216 L 26.08993475811632,56.8098574960932 L 26.909830056250527,58.8167787843871 L 27.928932188134524,60.60660171779821 L 29.12214747707527,62.135254915624216 L 30.460095002604533,63.36509786282552 L 31.909830056250527,64.2658477444273 L 33.43565534959769,64.81532510892707 L 35.0,65.0 L 36.56434465040231,64.81532510892707 L 38.09016994374947,64.2658477444273 L 39.53990499739547,63.365097862825515 L 40.87785252292473,62.135254915624216 L 42.071067811865476,60.60660171779821 L 43.09016994374947,58.8167787843871 L 43.91006524188368,56.8098574960932 L 44.510565162951536,54.63525491562421 L 44.876883405951375,52.346516975603464 L 45.0,50.0" /><path fill="#CE93D8" stroke="black" stroke-width="3" d="M 75.0,50.0 L 74.87688340595138,47.653483024396536 L 74.51056516295154,45.36474508437579 L 73.91006524188367,43.1901425039068 L 73.09016994374947,41.1832212156129 L 72.07106781186548,39.39339828220179 L 70.87785252292473,37.864745084375784 L 69.53990499739547,36.634902137174485 L 68.09016994374947,35.734152255572695 L 66.5643446504023,35.18467489107293 L 65.0,35.0 L 63.43565534959769,35.18467489107294 L 61.90983005625053,35.734152255572695 L 60.46009500260453,36.63490213717448 L 59.12214747707527,37.864745084375784 L 57.928932188134524,39.39339828220179 L 56.90983005625053,41.1832212156129 L 56.08993475811632,43.1901425039068 L 55.489434837048464,45.364745084375784 L 55.123116594048625,47.653483024396536 L 55.0,50.0 L 55.0,50.0 L 55.123116594048625,52.346516975603464 L 55.489434837048464,54.635254915624216 L 56.08993475811632,56.8098574960932 L 56.90983005625053,58.8167787843871 L 57.928932188134524,60.60660171779821 L 59.12214747707527,62.135254915624216 L 60.46009500260453,63.36509786282552 L 61.90983005625053,64.2658477444273 L 63.43565534959769,64.81532510892707 L 65.0,65.0 L 66.5643446504023,64.81532510892707 L 68.09016994374947,64.2658477444273 L 69.53990499739547,63.365097862825515 L 70.87785252292473,62.135254915624216 L 72.07106781186548,60.60660171779821 L 73.09016994374947,58.8167787843871 L 73.91006524188367,56.8098574960932 L 74.51056516295154,54.63525491562421 L 74.87688340595138,52.346516975603464 L 75.0,50.0" /><path fill="#E1BEE7" stroke="black" stroke-width="3" d="M 58.0,40.0 L 57.901506724761106,38.122786419517226 L 57.60845213036123,36.291796067500634 L 57.128052193506946,34.55211400312544 L 56.47213595499958,32.94657697249032 L 55.65685424949238,31.514718625761432 L 54.70228201833979,30.29179606750063 L 53.631923997916374,29.30792170973959 L 52.47213595499958,28.587321804458156 L 51.25147572032185,28.14773991285835 L 50.0,28.0 L 48.74852427967815,28.14773991285835 L 47.52786404500042,28.587321804458156 L 46.368076002083626,29.307921709739585 L 45.29771798166021,30.29179606750063 L 44.34314575050762,31.51471862576143 L 43.52786404500042,32.94657697249032 L 42.871947806493054,34.55211400312544 L 42.39154786963877,36.29179606750063 L 42.0984932752389,38.122786419517226 L 42.0,40.0 L 42.0,40.0 L 42.0984932752389,41.877213580482774 L 42.39154786963877,43.70820393249937 L 42.871947806493054,45.44788599687456 L 43.52786404500042,47.05342302750968 L 44.34314575050762,48.48528137423857 L 45.29771798166021,49.70820393249937 L 46.368076002083626,50.69207829026041 L 47.52786404500042,51.412678195541844 L 48.74852427967815,51.85226008714165 L 50.0,52.0 L 51.25147572032185,51.85226008714165 L 52.47213595499958,51.412678195541844 L 53.631923997916374,50.69207829026041 L 54.70228201833979,49.70820393249937 L 55.65685424949238,48.48528137423857 L 56.47213595499958,47.05342302750968 L 57.128052193506946,45.44788599687456 L 57.60845213036123,43.708203932499366 L 57.901506724761106,41.877213580482774 L 58.0,40.0" /><path fill="#E1BEE7" stroke="black" stroke-width="3" d="M 58.0,60.0 L 57.901506724761106,58.122786419517226 L 57.60845213036123,56.291796067500634 L 57.128052193506946,54.55211400312544 L 56.47213595499958,52.94657697249032 L 55.65685424949238,51.51471862576143 L 54.70228201833979,50.29179606750063 L 53.631923997916374,49.30792170973959 L 52.47213595499958,48.587321804458156 L 51.25147572032185,48.14773991285835 L 50.0,48.0 L 48.74852427967815,48.14773991285835 L 47.52786404500042,48.587321804458156 L 46.368076002083626,49.30792170973959 L 45.29771798166021,50.29179606750063 L 44.34314575050762,51.51471862576143 L 43.52786404500042,52.94657697249032 L 42.871947806493054,54.55211400312544 L 42.39154786963877,56.29179606750063 L 42.0984932752389,58.122786419517226 L 42.0,60.0 L 42.0,60.0 L 42.0984932752389,61.877213580482774 L 42.39154786963877,63.70820393249937 L 42.871947806493054,65.44788599687456 L 43.52786404500042,67.05342302750968 L 44.34314575050762,68.48528137423857 L 45.29771798166021,69.70820393249937 L 46.368076002083626,70.69207829026041 L 47.52786404500042,71.41267819554184 L 48.74852427967815,71.85226008714164 L 50.0,72.0 L 51.25147572032185,71.85226008714164 L 52.47213595499958,71.41267819554184 L 53.631923997916374,70.69207829026041 L 54.70228201833979,69.70820393249937 L 55.65685424949238,68.48528137423857 L 56.47213595499958,67.05342302750968 L 57.128052193506946,65.44788599687456 L 57.60845213036123,63.708203932499366 L 57.901506724761106,61.877213580482774 L 58.0,60.0" /><circle cx="50" cy="50" fill="#AD1457" r="5" stroke="black" stroke-width="2" />
</svg>