<svg fill="none" height="100" viewbox="0 0 100 100" width="100" xmlns="http://www.w3.org/2000/svg">
<!-- Center (brownish) -->
<circle cx="50" cy="50" fill="#6B4000" r="12" stroke="black" stroke-width="3"></circle>
<!-- Petals (12) -->
<ellipse cx="50" cy="28" fill="#FFD000" rx="6" ry="14" stroke="black" stroke-width="3"></ellipse>
<ellipse cx="50" cy="28" fill="#FFD000" rx="6" ry="14" stroke="black" stroke-width="3" transform="rotate(30,50,50)"></ellipse>
<ellipse cx="50" cy="28" fill="#FFD000" rx="6" ry="14" stroke="black" stroke-width="3" transform="rotate(60,50,50)"></ellipse>
<ellipse cx="50" cy="28" fill="#FFD000" rx="6" ry="14" stroke="black" stroke-width="3" transform="rotate(90,50,50)"></ellipse>
<ellipse cx="50" cy="28" fill="#FFD000" rx="6" ry="14" stroke="black" stroke-width="3" transform="rotate(120,50,50)"></ellipse>
<ellipse cx="50" cy="28" fill="#FFD000" rx="6" ry="14" stroke="black" stroke-width="3" transform="rotate(150,50,50)"></ellipse>
<ellipse cx="50" cy="28" fill="#FFD000" rx="6" ry="14" stroke="black" stroke-width="3" transform="rotate(180,50,50)"></ellipse>
<ellipse cx="50" cy="28" fill="#FFD000" rx="6" ry="14" stroke="black" stroke-width="3" transform="rotate(210,50,50)"></ellipse>
<ellipse cx="50" cy="28" fill="#FFD000" rx="6" ry="14" stroke="black" stroke-width="3" transform="rotate(240,50,50)"></ellipse>
<ellipse cx="50" cy="28" fill="#FFD000" rx="6" ry="14" stroke="black" stroke-width="3" transform="rotate(270,50,50)"></ellipse>
<ellipse cx="50" cy="28" fill="#FFD000" rx="6" ry="14" stroke="black" stroke-width="3" transform="rotate(300,50,50)"></ellipse>
<ellipse cx="50" cy="28" fill="#FFD000" rx="6" ry="14" stroke="black" stroke-width="3" transform="rotate(330,50,50)"></ellipse>
</svg>