<?xml version='1.0' encoding='utf-8'?>
<svg xmlns="http://www.w3.org/2000/svg" fill="none" height="100" viewbox="0 0 100 100" width="100">

<circle cx="50" cy="50" fill="#6B4000" r="12" stroke="black" stroke-width="3" />

<path fill="#FFD000" stroke="black" stroke-width="3" d="M 56.0,28.0 L 55.92613004357083,25.809917489436767 L 55.70633909777092,23.673762078750737 L 55.346039145130206,21.644133003646346 L 54.85410196624969,19.771006467905377 L 54.242640687119284,18.100505063388336 L 53.52671151375484,16.673762078750734 L 52.72394299843728,15.525908661362852 L 51.85410196624969,14.68520877186785 L 50.93860679024139,14.172363231668072 L 50.0,14.0 L 49.06139320975861,14.172363231668072 L 48.14589803375031,14.685208771867849 L 47.27605700156272,15.52590866136285 L 46.47328848624516,16.673762078750734 L 45.757359312880716,18.100505063388333 L 45.14589803375031,19.771006467905373 L 44.653960854869794,21.644133003646346 L 44.29366090222908,23.673762078750734 L 44.07386995642918,25.809917489436767 L 44.0,28.0 L 44.0,28.0 L 44.07386995642918,30.190082510563233 L 44.29366090222908,32.326237921249266 L 44.653960854869794,34.355866996353654 L 45.14589803375031,36.22899353209463 L 45.757359312880716,37.89949493661167 L 46.47328848624516,39.326237921249266 L 47.27605700156272,40.47409133863715 L 48.14589803375031,41.31479122813215 L 49.06139320975861,41.82763676833193 L 50.0,42.0 L 50.93860679024139,41.82763676833193 L 51.85410196624969,41.31479122813215 L 52.72394299843728,40.47409133863715 L 53.52671151375484,39.326237921249266 L 54.242640687119284,37.89949493661166 L 54.85410196624969,36.22899353209462 L 55.346039145130206,34.355866996353654 L 55.70633909777092,32.326237921249266 L 55.92613004357083,30.190082510563233 L 56.0,28.0" /><path fill="#FFD000" stroke="black" stroke-width="3" d="M 66.19615242270663,33.94744111674234 L 67.22722041914413,32.013839047996 L 68.10495358190262,30.05397872301036 L 68.80773920748562,28.116118407390083 L 69.31827238137953,26.247974653495405 L 69.6239820824806,24.495547360560863 L 69.71734072335539,22.901987104511242 L 69.596049504426,21.506532627573776 L 69.26309501804498,20.34354465021854 L 68.72667570867956,19.441659796183828 L 68.0,18.8230854637602 L 67.10096105965235,18.50305300594244 L 66.05169621008716,18.489442683968846 L 64.87804183421113,18.782589629136496 L 63.60889719789387,19.375275590756402 L 62.275512854131065,20.252906673441572 L 60.91072115071509,21.393872687245718 L 59.548127788868015,22.770079262259877 L 58.22128433934664,24.347639625239438 L 56.9628620914191,26.08770900442517 L 55.80384757729337,27.94744111674234 L 55.80384757729337,27.94744111674234 L 54.77277958085587,29.881043185488693 L 53.895046418097365,31.840903510474327 L 53.19226079251437,33.778763826094604 L 52.68172761862046,35.64690757998928 L 52.37601791751939,37.39933487292382 L 52.282659276644594,38.99289512897344 L 52.40395049557398,40.3883496059109 L 52.736904981955014,41.55133758326615 L 53.27332429132042,42.45322243730086 L 54.0,43.071796769724486 L 54.899038940347644,43.391829227542246 L 55.94830378991283,43.40543954951583 L 57.12195816578886,43.112292604348184 L 58.39110280210613,42.51960664272828 L 59.724487145868935,41.6419755600431 L 61.08927884928491,40.50100954623896 L 62.45187221113197,39.12480297122481 L 63.77871566065336,37.54724260824525 L 65.0371379085809,35.807173229059515 L 66.19615242270663,33.94744111674234" /><path fill="#FFD000" stroke="black" stroke-width="3" d="M 72.05255888325765,44.19615242270663 L 73.91229099557482,43.037137908580895 L 75.65236037476055,41.778715660653354 L 77.22992073774012,40.45187221113196 L 78.60612731275427,39.0892788492849 L 79.74709332655841,37.72448714586893 L 80.62472440924358,36.391102802106126 L 81.21741037086349,35.121958165788854 L 81.51055731603114,33.94830378991282 L 81.49694699405755,32.899038940347644 L 81.17691453623979,31.999999999999993 L 80.55834020381616,31.273324291320414 L 79.65645534978145,30.736904981955007 L 78.49346737242621,30.403950495573973 L 77.09801289548875,30.2826592766446 L 75.50445263943914,30.3760179175194 L 73.75202534650458,30.681727618620457 L 71.8838815926099,31.19226079251436 L 69.94602127698963,31.895046418097373 L 67.986160952004,32.77277958085586 L 66.05255888325765,33.80384757729337 L 66.05255888325765,33.80384757729337 L 64.19282677094047,34.9628620914191 L 62.452757391754744,36.22128433934664 L 60.87519702877518,37.548127788868015 L 59.498990453761024,38.910721150715084 L 58.35802443995688,40.275512854131065 L 57.48039335727171,41.60889719789387 L 56.8877073956518,42.87804183421113 L 56.59456045048416,44.05169621008716 L 56.608170772457754,45.10096105965235 L 56.92820323027551,46.0 L 57.546777562699134,46.72667570867958 L 58.448662416733846,47.26309501804498 L 59.61165039408908,47.596049504426006 L 61.007104871026556,47.71734072335539 L 62.60066512707617,47.623982082480595 L 64.35309242001071,47.31827238137953 L 66.2212361739054,46.807739207485625 L 68.15909648952567,46.10495358190262 L 70.11895681451131,45.22722041914413 L 72.05255888325765,44.19615242270663" /><path fill="#FFD000" stroke="black" stroke-width="3" d="M 72.0,56.0 L 74.19008251056323,55.92613004357083 L 76.32623792124926,55.70633909777092 L 78.35586699635365,55.346039145130206 L 80.22899353209462,54.85410196624969 L 81.89949493661166,54.242640687119284 L 83.32623792124927,53.52671151375484 L 84.47409133863715,52.72394299843728 L 85.31479122813215,51.85410196624969 L 85.82763676833193,50.93860679024139 L 86.0,50.0 L 85.82763676833193,49.06139320975861 L 85.31479122813215,48.14589803375031 L 84.47409133863715,47.27605700156272 L 83.32623792124927,46.47328848624516 L 81.89949493661167,45.757359312880716 L 80.22899353209463,45.14589803375031 L 78.35586699635365,44.653960854869794 L 76.32623792124927,44.29366090222908 L 74.19008251056323,44.07386995642918 L 72.0,44.0 L 72.0,44.0 L 69.80991748943677,44.07386995642918 L 67.67376207875074,44.29366090222908 L 65.64413300364635,44.653960854869794 L 63.77100646790537,45.14589803375031 L 62.10050506338833,45.757359312880716 L 60.673762078750734,46.47328848624516 L 59.52590866136285,47.27605700156272 L 58.68520877186785,48.14589803375031 L 58.17236323166807,49.06139320975861 L 58.0,50.0 L 58.17236323166807,50.93860679024139 L 58.68520877186785,51.85410196624969 L 59.52590866136285,52.72394299843728 L 60.673762078750734,53.52671151375484 L 62.10050506338834,54.242640687119284 L 63.77100646790538,54.85410196624969 L 65.64413300364635,55.346039145130206 L 67.67376207875074,55.70633909777092 L 69.80991748943677,55.92613004357083 L 72.0,56.0" /><path fill="#FFD000" stroke="black" stroke-width="3" d="M 66.05255888325766,66.19615242270663 L 67.986160952004,67.22722041914413 L 69.94602127698963,68.10495358190262 L 71.88388159260991,68.80773920748562 L 73.75202534650458,69.31827238137953 L 75.50445263943914,69.6239820824806 L 77.09801289548875,69.71734072335539 L 78.49346737242621,69.596049504426 L 79.65645534978145,69.26309501804496 L 80.55834020381616,68.72667570867956 L 81.17691453623979,67.99999999999999 L 81.49694699405755,67.10096105965233 L 81.51055731603114,66.05169621008716 L 81.21741037086349,64.87804183421112 L 80.62472440924358,63.60889719789385 L 79.74709332655843,62.27551285413105 L 78.60612731275428,60.91072115071508 L 77.22992073774012,59.548127788868015 L 75.65236037476056,58.221284339346624 L 73.91229099557482,56.9628620914191 L 72.05255888325765,55.80384757729337 L 72.05255888325765,55.80384757729337 L 70.11895681451131,54.77277958085587 L 68.15909648952567,53.895046418097365 L 66.2212361739054,53.19226079251436 L 64.35309242001071,52.68172761862046 L 62.60066512707617,52.37601791751939 L 61.007104871026556,52.282659276644594 L 59.61165039408908,52.40395049557398 L 58.44866241673384,52.736904981955014 L 57.546777562699134,53.27332429132042 L 56.928203230275514,54.0 L 56.60817077245775,54.899038940347644 L 56.59456045048415,55.94830378991283 L 56.8877073956518,57.12195816578886 L 57.480393357271716,58.391102802106126 L 58.35802443995689,59.724487145868935 L 59.49899045376103,61.08927884928491 L 60.87519702877519,62.45187221113197 L 62.452757391754744,63.77871566065335 L 64.19282677094047,65.0371379085809 L 66.05255888325766,66.19615242270663" /><path fill="#FFD000" stroke="black" stroke-width="3" d="M 55.80384757729337,72.05255888325765 L 56.9628620914191,73.91229099557482 L 58.22128433934664,75.65236037476055 L 59.54812778886803,77.22992073774012 L 60.91072115071509,78.60612731275427 L 62.275512854131065,79.74709332655841 L 63.608897197893874,80.62472440924358 L 64.87804183421113,81.21741037086349 L 66.05169621008717,81.51055731603114 L 67.10096105965235,81.49694699405755 L 68.0,81.17691453623979 L 68.72667570867958,80.55834020381617 L 69.263095018045,79.65645534978145 L 69.59604950442602,78.49346737242622 L 69.7173407233554,77.09801289548875 L 69.62398208248061,75.50445263943914 L 69.31827238137954,73.7520253465046 L 68.80773920748564,71.88388159260991 L 68.10495358190263,69.94602127698964 L 67.22722041914413,67.986160952004 L 66.19615242270663,66.05255888325765 L 66.19615242270663,66.05255888325765 L 65.0371379085809,64.19282677094048 L 63.77871566065337,62.452757391754744 L 62.451872211131985,60.87519702877519 L 61.089278849284916,59.498990453761024 L 59.72448714586894,58.358024439956885 L 58.39110280210614,57.480393357271716 L 57.12195816578887,56.8877073956518 L 55.94830378991284,56.59456045048415 L 54.89903894034765,56.60817077245775 L 54.0,56.928203230275514 L 53.273324291320435,57.546777562699134 L 52.73690498195502,58.44866241673384 L 52.403950495573994,59.61165039408908 L 52.28265927664461,61.007104871026556 L 52.376017917519405,62.60066512707618 L 52.68172761862047,64.35309242001071 L 53.192260792514375,66.2212361739054 L 53.89504641809738,68.15909648952567 L 54.77277958085587,70.11895681451131 L 55.80384757729337,72.05255888325765" /><path fill="#FFD000" stroke="black" stroke-width="3" d="M 44.0,72.0 L 44.07386995642917,74.19008251056324 L 44.29366090222908,76.32623792124927 L 44.653960854869794,78.35586699635365 L 45.14589803375031,80.22899353209463 L 45.757359312880716,81.89949493661167 L 46.47328848624516,83.32623792124927 L 47.27605700156272,84.47409133863715 L 48.14589803375031,85.31479122813215 L 49.06139320975861,85.82763676833193 L 50.0,86.0 L 50.93860679024139,85.82763676833193 L 51.85410196624969,85.31479122813215 L 52.72394299843728,84.47409133863715 L 53.52671151375484,83.32623792124927 L 54.242640687119284,81.89949493661167 L 54.85410196624969,80.22899353209463 L 55.346039145130206,78.35586699635365 L 55.70633909777092,76.32623792124927 L 55.92613004357082,74.19008251056324 L 56.0,72.0 L 56.0,72.0 L 55.926130043570815,69.80991748943677 L 55.706339097770915,67.67376207875074 L 55.3460391451302,65.64413300364635 L 54.85410196624968,63.77100646790538 L 54.24264068711928,62.10050506338834 L 53.52671151375483,60.67376207875074 L 52.72394299843727,59.525908661362855 L 51.85410196624968,58.685208771867856 L 50.93860679024138,58.17236323166808 L 49.99999999999999,58.00000000000001 L 49.061393209758606,58.17236323166808 L 48.145898033750306,58.685208771867856 L 47.27605700156271,59.525908661362855 L 46.47328848624515,60.67376207875074 L 45.75735931288071,62.10050506338835 L 45.145898033750306,63.77100646790539 L 44.65396085486979,65.64413300364635 L 44.29366090222907,67.67376207875074 L 44.073869956429164,69.80991748943677 L 44.0,72.0" /><path fill="#FFD000" stroke="black" stroke-width="3" d="M 33.80384757729337,66.05255888325765 L 32.77277958085586,67.986160952004 L 31.895046418097373,69.94602127698963 L 31.192260792514368,71.88388159260991 L 30.681727618620464,73.75202534650458 L 30.3760179175194,75.50445263943914 L 30.2826592766446,77.09801289548875 L 30.40395049557398,78.49346737242621 L 30.736904981955014,79.65645534978145 L 31.273324291320414,80.55834020381616 L 31.999999999999993,81.17691453623979 L 32.899038940347644,81.49694699405755 L 33.94830378991283,81.51055731603114 L 35.12195816578886,81.2174103708635 L 36.391102802106126,80.62472440924358 L 37.72448714586893,79.74709332655843 L 39.08927884928491,78.60612731275428 L 40.45187221113197,77.22992073774012 L 41.778715660653354,75.65236037476056 L 43.037137908580895,73.91229099557482 L 44.19615242270663,72.05255888325766 L 44.19615242270663,72.05255888325766 L 45.22722041914413,70.11895681451131 L 46.10495358190262,68.15909648952567 L 46.807739207485625,66.2212361739054 L 47.318272381379536,64.35309242001071 L 47.623982082480595,62.60066512707617 L 47.71734072335539,61.007104871026556 L 47.59604950442602,59.61165039408908 L 47.26309501804498,58.448662416733846 L 46.72667570867958,57.546777562699134 L 46.0,56.92820323027551 L 45.10096105965235,56.608170772457754 L 44.05169621008717,56.59456045048416 L 42.87804183421113,56.8877073956518 L 41.60889719789387,57.48039335727171 L 40.275512854131065,58.35802443995689 L 38.91072115071509,59.49899045376103 L 37.54812778886803,60.87519702877519 L 36.22128433934664,62.452757391754744 L 34.9628620914191,64.19282677094047 L 33.80384757729337,66.05255888325765" /><path fill="#FFD000" stroke="black" stroke-width="3" d="M 27.947441116742354,55.803847577293375 L 26.08770900442518,56.96286209141911 L 24.347639625239452,58.22128433934665 L 22.77007926225989,59.54812778886804 L 21.393872687245732,60.910721150715105 L 20.252906673441593,62.27551285413108 L 19.37527559075642,63.60889719789388 L 18.78258962913651,64.87804183421115 L 18.48944268396887,66.05169621008719 L 18.503053005942462,67.10096105965236 L 18.823085463760222,68.00000000000001 L 19.44165979618385,68.72667570867958 L 20.343544650218554,69.263095018045 L 21.506532627573794,69.59604950442602 L 22.901987104511264,69.7173407233554 L 24.495547360560877,69.62398208248061 L 26.24797465349542,69.31827238137954 L 28.1161184073901,68.80773920748564 L 30.053978723010374,68.10495358190263 L 32.01383904799601,67.22722041914415 L 33.947441116742354,66.19615242270663 L 33.947441116742354,66.19615242270663 L 35.80717322905953,65.0371379085809 L 37.54724260824526,63.77871566065336 L 39.124802971224824,62.45187221113198 L 40.50100954623898,61.08927884928491 L 41.64197556004312,59.724487145868935 L 42.51960664272829,58.39110280210613 L 43.112292604348205,57.12195816578887 L 43.40543954951585,55.94830378991283 L 43.39182922754226,54.89903894034765 L 43.07179676972449,54.0 L 42.453222437300866,53.27332429132042 L 41.55133758326616,52.73690498195502 L 40.38834960591092,52.40395049557398 L 38.992895128973444,52.28265927664461 L 37.39933487292383,52.376017917519405 L 35.64690757998929,52.68172761862047 L 33.77876382609461,53.192260792514375 L 31.840903510474337,53.89504641809738 L 29.8810431854887,54.772779580855875 L 27.947441116742354,55.803847577293375" /><path fill="#FFD000" stroke="black" stroke-width="3" d="M 27.999999999999996,43.99999999999999 L 25.809917489436764,44.073869956429164 L 23.673762078750734,44.29366090222907 L 21.644133003646342,44.65396085486979 L 19.771006467905373,45.145898033750306 L 18.100505063388333,45.757359312880716 L 16.67376207875073,46.47328848624516 L 15.52590866136285,47.27605700156272 L 14.685208771867849,48.14589803375031 L 14.17236323166807,49.06139320975861 L 13.999999999999998,50.0 L 14.17236323166807,50.93860679024139 L 14.685208771867847,51.85410196624969 L 15.525908661362848,52.72394299843728 L 16.673762078750734,53.52671151375484 L 18.100505063388333,54.242640687119284 L 19.771006467905373,54.85410196624968 L 21.644133003646346,55.3460391451302 L 23.673762078750734,55.706339097770915 L 25.809917489436767,55.926130043570815 L 28.0,55.99999999999999 L 28.0,55.99999999999999 L 30.190082510563233,55.926130043570815 L 32.326237921249266,55.706339097770915 L 34.355866996353654,55.3460391451302 L 36.22899353209463,54.85410196624968 L 37.89949493661167,54.24264068711928 L 39.326237921249266,53.52671151375483 L 40.47409133863715,52.72394299843727 L 41.31479122813215,51.85410196624968 L 41.82763676833193,50.93860679024138 L 42.0,49.99999999999999 L 41.82763676833193,49.061393209758606 L 41.31479122813215,48.145898033750306 L 40.47409133863715,47.27605700156271 L 39.326237921249266,46.47328848624515 L 37.89949493661166,45.75735931288071 L 36.22899353209462,45.145898033750306 L 34.355866996353654,44.65396085486979 L 32.326237921249266,44.29366090222907 L 30.19008251056323,44.073869956429164 L 27.999999999999996,43.99999999999999" /><path fill="#FFD000" stroke="black" stroke-width="3" d="M 33.947441116742354,33.80384757729337 L 32.013839047996,32.77277958085586 L 30.053978723010367,31.895046418097373 L 28.11611840739009,31.192260792514368 L 26.24797465349541,30.681727618620464 L 24.49554736056087,30.3760179175194 L 22.90198710451125,30.2826592766446 L 21.506532627573783,30.40395049557398 L 20.343544650218547,30.736904981955014 L 19.441659796183835,31.273324291320414 L 18.823085463760208,31.999999999999993 L 18.503053005942448,32.899038940347644 L 18.48944268396886,33.94830378991283 L 18.782589629136496,35.12195816578886 L 19.37527559075641,36.391102802106126 L 20.25290667344158,37.72448714586893 L 21.393872687245718,39.08927884928491 L 22.770079262259884,40.45187221113197 L 24.347639625239438,41.778715660653354 L 26.08770900442518,43.037137908580895 L 27.947441116742347,44.19615242270663 L 27.947441116742347,44.19615242270663 L 29.881043185488693,45.22722041914413 L 31.840903510474334,46.10495358190262 L 33.778763826094604,46.807739207485625 L 35.64690757998929,47.318272381379536 L 37.39933487292383,47.623982082480595 L 38.992895128973444,47.71734072335539 L 40.38834960591092,47.59604950442602 L 41.551337583266154,47.26309501804498 L 42.453222437300866,46.72667570867958 L 43.07179676972449,46.0 L 43.391829227542246,45.10096105965235 L 43.40543954951584,44.05169621008717 L 43.1122926043482,42.87804183421113 L 42.51960664272829,41.60889719789387 L 41.64197556004311,40.275512854131065 L 40.50100954623897,38.91072115071509 L 39.12480297122481,37.54812778886803 L 37.547242608245256,36.22128433934664 L 35.80717322905953,34.9628620914191 L 33.947441116742354,33.80384757729337" /><path fill="#FFD000" stroke="black" stroke-width="3" d="M 44.196152422706625,27.947441116742354 L 43.03713790858089,26.08770900442518 L 41.77871566065335,24.347639625239452 L 40.45187221113196,22.77007926225989 L 39.089278849284895,21.393872687245732 L 37.72448714586892,20.252906673441593 L 36.39110280210612,19.37527559075642 L 35.121958165788854,18.78258962913651 L 33.94830378991282,18.48944268396887 L 32.89903894034764,18.503053005942462 L 31.999999999999986,18.823085463760222 L 31.273324291320414,19.44165979618385 L 30.736904981955007,20.343544650218554 L 30.403950495573973,21.506532627573794 L 30.282659276644594,22.901987104511264 L 30.37601791751939,24.495547360560877 L 30.681727618620457,26.24797465349542 L 31.19226079251436,28.1161184073901 L 31.895046418097365,30.053978723010374 L 32.77277958085586,32.01383904799601 L 33.80384757729337,33.947441116742354 L 33.80384757729337,33.947441116742354 L 34.9628620914191,35.80717322905953 L 36.22128433934664,37.54724260824526 L 37.54812778886802,39.124802971224824 L 38.91072115071509,40.50100954623898 L 40.275512854131065,41.64197556004312 L 41.60889719789387,42.51960664272829 L 42.87804183421113,43.112292604348205 L 44.05169621008717,43.40543954951585 L 45.10096105965235,43.39182922754226 L 46.0,43.07179676972449 L 46.72667570867958,42.453222437300866 L 47.26309501804498,41.55133758326616 L 47.59604950442602,40.38834960591092 L 47.71734072335539,38.992895128973444 L 47.623982082480595,37.39933487292383 L 47.31827238137953,35.64690757998929 L 46.807739207485625,33.77876382609461 L 46.10495358190262,31.840903510474337 L 45.227220419144125,29.8810431854887 L 44.196152422706625,27.947441116742354" /></svg>